<svg width="278" height="325" viewBox="0 0 278 325" fill="none" xmlns="http://www.w3.org/2000/svg">
<g filter="url(#filter0_d_6_367)">
<rect x="10" y="9" width="252" height="299" rx="5" fill="white"/>
</g>
<circle cx="136" cy="116.5" r="87" stroke="black"/>
<mask id="mask0_6_367" style="mask-type:alpha" maskUnits="userSpaceOnUse" x="48" y="29" width="176" height="175">
<circle cx="136" cy="116.5" r="87.5" fill="#D9D9D9"/>
</mask>
<g mask="url(#mask0_6_367)">
<path d="M121.3 150.179C121.99 153.765 122.769 157.527 125.153 160.292C128.877 164.612 135.245 165.192 140.941 165.461C144.168 165.613 147.928 165.533 149.903 162.978C151.362 161.093 151.308 158.5 151.548 156.128C152.313 148.576 156.596 141.925 159.72 135.008C167.726 117.283 168.158 96.2839 160.891 78.2439C159.879 75.7339 158.672 73.2049 156.645 71.4109C154.365 69.3949 151.3 68.5289 148.302 68.0069C134.692 65.6339 108.441 69.0269 109.303 87.2649C110.274 107.816 117.408 129.955 121.3 150.179Z" fill="#FFE7FB"/>
<path d="M180.764 229.626C183.27 229.696 185.975 229.709 188.016 228.255C191.473 225.793 191.229 220.667 190.553 216.477C188.198 201.881 184.188 186.078 172.243 177.366C163.035 170.651 150.909 169.591 139.521 169.992C130.393 170.314 121.307 171.419 112.285 172.842C106.398 173.77 100.256 174.956 95.6183 178.7C89.1973 183.883 87.1653 192.644 85.5273 200.732C84.2373 207.097 78.1073 221.285 84.1293 226.036C89.6923 230.425 107.863 227.575 114.833 227.771C136.81 228.389 158.787 228.998 180.764 229.626Z" fill="#6987FF"/>
<path d="M124.591 217.839C125.577 222.148 127.038 226.564 130.211 229.643C133.383 232.721 138.699 233.979 142.295 231.408C146.626 228.312 146.368 221.969 146.377 216.646C146.386 210.815 147.261 204.987 148.962 199.41C151.45 191.256 155.715 183.537 156.503 175.049C156.769 172.191 156.44 168.905 154.179 167.138C152.805 166.064 150.989 165.783 149.257 165.576C139.688 164.433 123.003 161.564 119.954 174.033C118.496 179.993 121.014 188.217 121.56 194.265C122.272 202.162 122.818 210.088 124.591 217.839Z" fill="#DBC9FF"/>
<path d="M121.117 118.628C118.687 118.652 116.255 118.676 113.825 118.7C113.126 118.706 112.333 118.755 111.885 119.292C111.334 119.952 111.661 121.026 112.335 121.56C113.01 122.093 113.906 122.229 114.758 122.346C115.854 122.497 116.95 122.648 118.045 122.799C119.589 123.012 121.342 123.168 122.532 122.162C123.723 121.156 123.275 118.606 121.721 118.724" fill="#F03FA3"/>
<path d="M155.299 119.848C152.868 119.872 150.438 119.895 148.007 119.919C147.308 119.926 146.516 119.975 146.067 120.512C145.517 121.172 145.843 122.246 146.518 122.78C147.191 123.313 148.088 123.449 148.939 123.566C150.035 123.717 151.132 123.868 152.228 124.019C153.771 124.231 155.523 124.388 156.714 123.382C157.904 122.376 157.457 119.826 155.903 119.945" fill="#F03FA3"/>
<path d="M116.886 101.937C117.565 101.122 118.43 100.553 119.332 100.089C120.241 99.6347 121.215 99.3207 122.217 99.1377C124.206 98.7787 126.38 98.9277 128.187 100.007C127.162 100.295 126.23 100.41 125.305 100.609L122.574 101.105C120.747 101.416 118.958 101.783 116.886 101.937Z" fill="black"/>
<path d="M124.298 109.577C124.298 111.192 123.477 112.5 122.463 112.5C121.45 112.5 120.629 111.192 120.629 109.577C120.629 107.962 121.45 106.653 122.463 106.653C123.477 106.653 124.298 107.962 124.298 109.577Z" fill="black"/>
<path d="M156.954 102.249C154.893 101.978 153.128 101.511 151.322 101.098L148.623 100.449C147.71 100.199 146.786 100.031 145.779 99.6846C147.645 98.7106 149.823 98.6836 151.789 99.1536C152.778 99.3926 153.733 99.7616 154.615 100.266C155.489 100.781 156.321 101.397 156.954 102.249Z" fill="black"/>
<path d="M149.629 109.577C149.629 111.192 150.45 112.5 151.464 112.5C152.477 112.5 153.298 111.192 153.298 109.577C153.298 107.962 152.477 106.653 151.464 106.653C150.45 106.653 149.629 107.962 149.629 109.577Z" fill="black"/>
<path d="M134.659 107.921C134.773 108.172 133.96 114.666 131.9 118.138C131.9 118.138 131.448 120.528 136.051 121.827" stroke="black" stroke-miterlimit="10"/>
<path d="M130.069 128.452C130.069 128.452 138.156 131.133 144.424 128.59" stroke="black" stroke-miterlimit="10"/>
<path d="M123.86 144.92L122.72 156.96L122.25 161.89L119.29 163.75L102.7 174.15C92.13 180.78 84.68 191.38 82.03 203.57L77 226.7" stroke="black" stroke-miterlimit="10"/>
<path d="M147.95 144.04L148.37 148.5L149.19 157.09L149.64 161.89L169.19 174.15C179.76 180.78 187.21 191.38 189.86 203.57L194.89 226.7" stroke="black" stroke-miterlimit="10"/>
<path d="M167.68 90.3696C167.73 92.2596 167.74 94.0896 167.71 95.8596C167.71 95.8996 167.72 95.9296 167.72 95.9496C167.72 95.9596 167.72 95.9796 167.71 95.9896C167.38 118.3 161.44 131.07 154.76 138.37C152.51 140.83 150.18 142.66 147.95 144.04C147.21 144.5 146.48 144.9 145.77 145.26C140.08 148.15 135.52 148.15 135.52 148.15C134.37 148.15 133.26 148.07 132.2 147.92C129.09 147.49 126.33 146.44 123.86 144.92C122.25 143.93 120.77 142.74 119.42 141.39C110.36 132.41 106.5 116.33 104.78 104.61L104.77 104.6C104.7 104.12 104.63 103.64 104.57 103.18C103.57 95.9196 103.39 90.6496 103.23 90.3696" stroke="black" stroke-miterlimit="10"/>
<path d="M177.969 64.6968C183.778 84.7188 191.343 164.45 151.402 162.998L147.946 144.04C156.815 138.56 167.266 125.79 167.706 95.9898C167.716 95.9798 167.716 95.9798 167.716 95.9798C167.716 95.9798 167.716 95.9698 167.716 95.9498C167.716 95.9298 167.706 95.8998 167.706 95.8598C167.656 94.9598 166.896 88.9698 156.605 74.4698C156.605 74.4698 143.336 90.3698 123.856 90.3698C105.566 90.3698 104.346 99.5798 104.566 103.18C104.626 104.06 104.766 104.6 104.766 104.6L104.776 104.61C106.756 118.09 111.566 137.35 123.856 144.92L122.246 161.89L95.6177 178.7C93.2527 158.542 89.6547 132.132 89.8147 99.4218C89.8147 99.4218 88.5947 38.6888 145.736 44.3758C145.736 44.3758 159.33 46.7308 161.243 53.1188C161.243 53.1188 175.078 54.7378 177.969 64.6968Z" fill="black"/>
<path d="M122.246 161.89C122.246 161.89 135.788 170.66 149.636 161.89" stroke="black" stroke-miterlimit="10"/>
<path d="M120.483 162.998C120.483 162.998 135.958 176.621 151.402 162.998" stroke="black" stroke-miterlimit="10"/>
<path d="M128.856 226.7C128.856 226.7 128.746 226.19 128.546 225.25C128.316 224.18 127.976 222.56 127.546 220.53C127.226 219.03 126.856 217.29 126.456 215.39C126.136 213.91 125.806 212.33 125.446 210.67C125.096 209.02 124.736 207.3 124.356 205.53C124.036 203.99 123.696 202.41 123.356 200.81C122.996 199.1 122.636 197.38 122.266 195.67C121.936 194.09 121.596 192.51 121.266 190.95C120.896 189.2 120.536 187.48 120.186 185.81C119.836 184.19 119.506 182.6 119.186 181.09C117.346 172.33 115.996 165.82 116.036 165.79" stroke="black" stroke-miterlimit="10"/>
<path d="M106.877 171.529C106.561 171.727 105.242 185.37 105.242 185.37L117.777 198.737L114.261 206.853L127.295 219.346" stroke="black" stroke-miterlimit="10"/>
<path d="M142.326 226.7C142.326 226.7 142.436 226.19 142.636 225.25C142.866 224.18 143.206 222.56 143.636 220.53C143.956 219.03 144.326 217.29 144.726 215.39C145.046 213.91 145.386 212.33 145.736 210.67C146.086 209.02 146.456 207.3 146.826 205.53C147.156 203.99 147.486 202.41 147.826 200.81C148.186 199.1 148.546 197.38 148.916 195.67C149.246 194.09 149.586 192.51 149.906 190.95C150.276 189.2 150.646 187.48 150.996 185.81C151.336 184.19 151.676 182.6 151.986 181.09C153.836 172.33 155.186 165.82 155.146 165.79" stroke="black" stroke-miterlimit="10"/>
<path d="M164.305 171.529C164.621 171.727 165.94 185.37 165.94 185.37L153.405 198.737L156.921 206.853L143.887 219.346" stroke="black" stroke-miterlimit="10"/>
<path d="M151.986 181.09C151.676 182.6 151.336 184.19 150.996 185.81H120.186C119.836 184.19 119.506 182.6 119.186 181.09H151.986Z" fill="black"/>
<path d="M149.906 190.95C149.586 192.51 149.246 194.09 148.916 195.67H122.266C121.936 194.09 121.596 192.51 121.266 190.95H149.906Z" fill="black"/>
<path d="M147.826 200.81C147.486 202.41 147.156 203.99 146.826 205.53H124.356C124.036 203.99 123.696 202.41 123.356 200.81H147.826Z" fill="black"/>
<path d="M131.069 68.3787C131.069 74.7947 124.735 79.9967 116.921 79.9967C109.107 79.9967 102.773 74.7947 102.773 68.3787C102.773 61.9627 109.107 56.7607 116.921 56.7607C124.735 56.7607 131.069 61.9627 131.069 68.3787Z" stroke="white" stroke-width="2" stroke-miterlimit="10"/>
<path d="M168.176 68.3787C168.176 74.7947 161.841 79.9967 154.027 79.9967C146.214 79.9967 139.879 74.7947 139.879 68.3787C139.879 61.9627 146.214 56.7607 154.027 56.7607C161.841 56.7607 168.176 61.9627 168.176 68.3787Z" stroke="white" stroke-width="2" stroke-miterlimit="10"/>
<path d="M131.069 68.3788C131.069 68.3788 135.166 64.7238 139.879 68.3788" stroke="white" stroke-width="2" stroke-miterlimit="10"/>
<path d="M148.37 148.5C140.52 151.16 128.34 155.13 122.72 156.96L123.86 144.92C126.33 146.44 129.09 147.49 132.2 147.92C133.26 148.07 134.37 148.15 135.52 148.15C135.52 148.15 140.08 148.15 145.77 145.26C146.48 144.9 147.21 144.5 147.95 144.04L148.37 148.5Z" fill="black"/>
</g>
<path d="M35.3516 245.094C35.2891 245.031 35.2578 244.914 35.2578 244.742C35.2578 244.414 35.2734 244.25 35.3047 244.25C35.4297 244.25 35.6172 244.211 35.8672 244.133C36.1172 244.055 36.3594 243.961 36.5938 243.852C36.8438 243.727 37 243.609 37.0625 243.5C37.1875 243.312 37.3203 243.086 37.4609 242.82C37.6016 242.539 37.7031 242.312 37.7656 242.141L37.8828 241.859L43.0625 229.953C43.2344 229.547 43.5234 229.344 43.9297 229.344C44.1641 229.344 44.3516 229.445 44.4922 229.648L49.2969 241.531C49.4375 241.891 49.5703 242.234 49.6953 242.562C49.8359 242.875 49.9609 243.172 50.0703 243.453C50.1328 243.609 50.2734 243.75 50.4922 243.875C50.7109 243.984 50.9453 244.07 51.1953 244.133C51.4609 244.195 51.6641 244.227 51.8047 244.227C51.8672 244.227 51.8984 244.359 51.8984 244.625C51.8984 244.875 51.8828 245.031 51.8516 245.094L50.4219 245C49.9688 244.969 49.5781 244.945 49.25 244.93C48.9219 244.898 48.6562 244.891 48.4531 244.906L44.9141 245.094C44.8516 245.031 44.8203 244.867 44.8203 244.602C44.8203 244.352 44.8516 244.227 44.9141 244.227C45.2578 244.227 45.6094 244.156 45.9688 244.016C46.3281 243.859 46.5078 243.656 46.5078 243.406C46.5078 243.391 46.4609 243.25 46.3672 242.984C46.2891 242.719 46.1406 242.336 45.9219 241.836L45.2188 240.125C45.1562 240.062 45.1016 240.031 45.0547 240.031C44.8984 240.016 44.6328 240.008 44.2578 240.008C43.8828 240.008 43.3984 240.008 42.8047 240.008C42.2891 240.008 41.8281 240.008 41.4219 240.008C41.0312 240.008 40.7031 240.016 40.4375 240.031C40.375 240.031 40.3203 240.07 40.2734 240.148L39.5 241.93C39.2344 242.555 39.0781 243.008 39.0312 243.289C39 243.57 39.1406 243.789 39.4531 243.945C39.7344 244.086 39.9766 244.172 40.1797 244.203C40.3984 244.219 40.5859 244.227 40.7422 244.227C40.7891 244.242 40.8125 244.367 40.8125 244.602C40.8125 244.805 40.7969 244.969 40.7656 245.094C40.0625 245.047 39.5469 245.008 39.2188 244.977C38.9062 244.945 38.6719 244.93 38.5156 244.93C38.3594 244.914 38.1875 244.914 38 244.93C37.8281 244.945 37.5469 244.969 37.1562 245C36.7656 245.016 36.1641 245.047 35.3516 245.094ZM42.8047 238.602C43.1172 238.602 43.4062 238.602 43.6719 238.602C43.9531 238.586 44.2188 238.57 44.4688 238.555L44.5391 238.438L42.8516 234.242L41.0234 238.438C41.0234 238.5 41.0391 238.531 41.0703 238.531C41.5391 238.578 42.1172 238.602 42.8047 238.602ZM52.5781 245.094C52.5156 245.031 52.4844 244.867 52.4844 244.602C52.4844 244.352 52.5156 244.227 52.5781 244.227C52.7031 244.227 52.8828 244.195 53.1172 244.133C53.3516 244.055 53.5703 243.969 53.7734 243.875C53.9766 243.781 54.0859 243.703 54.1016 243.641C54.2109 243.203 54.2656 242.609 54.2656 241.859V232.555C54.2656 232.195 54.25 231.875 54.2188 231.594C54.2031 231.312 54.1797 231.07 54.1484 230.867C54.0859 230.617 53.6797 230.492 52.9297 230.492H52.7188C52.625 230.492 52.5781 230.336 52.5781 230.023C52.5781 229.758 52.625 229.625 52.7188 229.625C53.625 229.547 54.4766 229.414 55.2734 229.227C56.0859 229.039 56.6641 228.891 57.0078 228.781L57.2422 228.711H57.2891C57.3516 228.711 57.4141 228.758 57.4766 228.852C57.5391 228.945 57.5781 229.031 57.5938 229.109C57.4219 229.844 57.3359 230.633 57.3359 231.477L57.3125 241.508C57.3125 242.539 57.3672 243.25 57.4766 243.641C57.5078 243.703 57.625 243.781 57.8281 243.875C58.0312 243.969 58.2422 244.055 58.4609 244.133C58.6953 244.195 58.8594 244.227 58.9531 244.227C58.9844 244.227 59.0078 244.289 59.0234 244.414C59.0391 244.539 59.0469 244.672 59.0469 244.812C59.0469 244.953 59.0312 245.047 59 245.094C58.9062 245.094 58.7266 245.078 58.4609 245.047C58.1953 245.031 57.8828 245.016 57.5234 245C57.1797 244.969 56.8516 244.945 56.5391 244.93C56.2266 244.914 55.9766 244.906 55.7891 244.906C55.6016 244.906 55.3438 244.914 55.0156 244.93C54.7031 244.945 54.375 244.969 54.0312 245C53.6875 245.016 53.3828 245.031 53.1172 245.047C52.8516 245.078 52.6719 245.094 52.5781 245.094ZM65.3281 245.164C64.375 245.164 63.4922 244.922 62.6797 244.438C61.8828 243.953 61.2422 243.305 60.7578 242.492C60.2891 241.68 60.0547 240.789 60.0547 239.82C60.0547 238.82 60.2656 237.922 60.6875 237.125C61.125 236.328 61.7266 235.695 62.4922 235.227C63.2578 234.758 64.1406 234.523 65.1406 234.523C66.125 234.523 66.9609 234.758 67.6484 235.227C68.3516 235.68 68.8828 236.25 69.2422 236.938C69.6172 237.609 69.8047 238.289 69.8047 238.977C69.8047 239.336 69.7266 239.57 69.5703 239.68C69.4297 239.789 69.1406 239.844 68.7031 239.844H63.4062C63.3125 239.844 63.2656 239.898 63.2656 240.008C63.2656 240.57 63.3672 241.102 63.5703 241.602C63.7891 242.102 64.1016 242.508 64.5078 242.82C64.9297 243.133 65.4375 243.289 66.0312 243.289C66.5625 243.289 67.0547 243.211 67.5078 243.055C67.8203 242.961 68.0625 242.875 68.2344 242.797C68.4062 242.719 68.5625 242.633 68.7031 242.539C68.8594 242.43 69.0391 242.297 69.2422 242.141C69.3828 242.203 69.4531 242.352 69.4531 242.586C69.4531 242.789 69.4219 242.945 69.3594 243.055C69.2656 243.305 69.0156 243.594 68.6094 243.922C68.2188 244.25 67.7344 244.539 67.1562 244.789C66.5938 245.039 65.9844 245.164 65.3281 245.164ZM63.4297 238.555H66.4062C66.625 238.555 66.7344 238.406 66.7344 238.109C66.7344 237.516 66.5703 236.984 66.2422 236.516C65.9297 236.047 65.5234 235.812 65.0234 235.812C64.5703 235.812 64.2109 235.977 63.9453 236.305C63.6953 236.617 63.5156 236.969 63.4062 237.359C63.3125 237.75 63.2656 238.07 63.2656 238.32C63.2656 238.477 63.3203 238.555 63.4297 238.555ZM70.5547 245.094C70.5391 245.031 70.5234 244.961 70.5078 244.883C70.5078 244.805 70.5078 244.727 70.5078 244.648C70.5078 244.367 70.5391 244.227 70.6016 244.227C70.9922 244.164 71.3828 244.055 71.7734 243.898C72.1797 243.727 72.4531 243.562 72.5938 243.406L75.125 240.617C75.2031 240.539 75.2422 240.453 75.2422 240.359C75.2422 240.281 75.2109 240.211 75.1484 240.148L72.1484 236.375C71.9453 236.109 71.6875 235.898 71.375 235.742C71.0781 235.586 70.8047 235.508 70.5547 235.508C70.4766 235.508 70.4375 235.352 70.4375 235.039C70.4375 234.852 70.4609 234.711 70.5078 234.617C71.4766 234.68 72.2266 234.727 72.7578 234.758C73.2891 234.773 73.6094 234.781 73.7188 234.781C73.7969 234.781 74.1016 234.773 74.6328 234.758C75.1641 234.727 75.9141 234.68 76.8828 234.617C76.9297 234.68 76.9531 234.82 76.9531 235.039C76.9531 235.336 76.9141 235.484 76.8359 235.484C76.6172 235.484 76.3828 235.539 76.1328 235.648C75.8984 235.758 75.7812 235.891 75.7812 236.047C75.7812 236.125 75.8203 236.219 75.8984 236.328L77.3516 238.133C77.8203 237.492 78.1875 237.016 78.4531 236.703C78.7188 236.375 78.8516 236.133 78.8516 235.977C78.8516 235.648 78.3672 235.484 77.3984 235.484C77.3359 235.484 77.3047 235.344 77.3047 235.062C77.3047 234.828 77.3359 234.68 77.3984 234.617C78.3203 234.68 79.0234 234.727 79.5078 234.758C80.0078 234.773 80.2969 234.781 80.375 234.781C80.4531 234.781 80.7266 234.773 81.1953 234.758C81.6641 234.727 82.3125 234.68 83.1406 234.617C83.1875 234.711 83.2109 234.852 83.2109 235.039C83.2109 235.336 83.1875 235.484 83.1406 235.484C82.0469 235.594 81.3516 235.812 81.0547 236.141L78.4531 239C78.3594 239.109 78.3125 239.195 78.3125 239.258C78.3125 239.352 78.3438 239.43 78.4062 239.492L81.2188 243.031C81.7656 243.719 82.3984 244.133 83.1172 244.273C83.1797 244.273 83.2109 244.438 83.2109 244.766C83.2109 244.922 83.1797 245.031 83.1172 245.094C82.5234 245.062 81.9766 245.023 81.4766 244.977C80.9922 244.93 80.5078 244.906 80.0234 244.906C79.3984 244.906 78.8359 244.93 78.3359 244.977C77.8516 245.023 77.3359 245.062 76.7891 245.094L76.7422 244.812C76.7422 244.422 76.7734 244.227 76.8359 244.227C77.0391 244.211 77.2656 244.133 77.5156 243.992C77.7812 243.836 77.9141 243.664 77.9141 243.477C77.9141 243.414 77.875 243.344 77.7969 243.266L76.2734 241.484L74.9375 243.172C74.8281 243.328 74.7734 243.477 74.7734 243.617C74.7734 243.773 74.9062 243.898 75.1719 243.992C75.3906 244.07 75.5859 244.125 75.7578 244.156C75.9453 244.172 76.1172 244.195 76.2734 244.227C76.3047 244.227 76.3203 244.367 76.3203 244.648C76.3203 244.883 76.2891 245.031 76.2266 245.094C76.1484 245.078 75.9375 245.055 75.5938 245.023C75.25 245.008 74.875 244.984 74.4688 244.953C74.0781 244.922 73.7422 244.906 73.4609 244.906C72.9141 244.906 72.4141 244.93 71.9609 244.977C71.5078 245.023 71.0391 245.062 70.5547 245.094ZM87.4531 245.164C86.5938 245.164 85.9062 244.93 85.3906 244.461C84.8906 243.977 84.6406 243.375 84.6406 242.656C84.6406 242.047 84.8281 241.516 85.2031 241.062C85.5938 240.609 86.0781 240.25 86.6562 239.984C86.875 239.891 87.0781 239.812 87.2656 239.75C87.4531 239.672 87.625 239.602 87.7812 239.539C88.375 239.352 88.8516 239.219 89.2109 239.141C89.5703 239.047 89.8359 238.969 90.0078 238.906C90.1484 238.859 90.2188 238.742 90.2188 238.555V237.711C90.2188 236.43 89.8281 235.789 89.0469 235.789C88.1406 235.789 87.6875 236.312 87.6875 237.359C87.6875 237.703 87.5469 237.961 87.2656 238.133C86.9844 238.289 86.6719 238.367 86.3281 238.367C85.6094 238.367 85.1172 238.133 84.8516 237.664C84.8516 237.258 84.9922 236.867 85.2734 236.492C85.5703 236.117 85.9531 235.781 86.4219 235.484C86.9062 235.172 87.4453 234.93 88.0391 234.758C88.6484 234.57 89.2578 234.477 89.8672 234.477C90.9609 234.477 91.7969 234.781 92.375 235.391C92.9688 235.984 93.2656 237.07 93.2656 238.648V242.445C93.2656 242.977 93.4531 243.242 93.8281 243.242C94.1094 243.242 94.375 243.141 94.625 242.938C94.7344 243 94.7891 243.117 94.7891 243.289C94.7891 243.695 94.7344 243.984 94.625 244.156C94.4062 244.359 94.0469 244.578 93.5469 244.812C93.0625 245.031 92.6016 245.141 92.1641 245.141C91.7891 245.141 91.4297 245.031 91.0859 244.812C90.7422 244.578 90.5156 244.312 90.4062 244.016C90.3906 244.016 90.3047 244.07 90.1484 244.18C89.9922 244.289 89.875 244.375 89.7969 244.438C89.4844 244.641 89.125 244.812 88.7188 244.953C88.3125 245.094 87.8906 245.164 87.4531 245.164ZM88.9297 243.477C89.3359 243.477 89.6484 243.383 89.8672 243.195C90.1016 242.992 90.2188 242.75 90.2188 242.469V240.102L89 240.523C88.6719 240.633 88.3672 240.797 88.0859 241.016C87.8203 241.234 87.6875 241.523 87.6875 241.883C87.6875 242.445 87.8047 242.852 88.0391 243.102C88.2891 243.352 88.5859 243.477 88.9297 243.477ZM95.9375 245.094C95.875 245.031 95.8438 244.867 95.8438 244.602C95.8438 244.352 95.875 244.227 95.9375 244.227C96.0625 244.227 96.2344 244.195 96.4531 244.133C96.6875 244.055 96.9062 243.969 97.1094 243.875C97.3281 243.781 97.4453 243.703 97.4609 243.641C97.5703 243.203 97.625 242.609 97.625 241.859V238.648C97.625 237.773 97.4844 237.188 97.2031 236.891C97.0781 236.734 96.9062 236.625 96.6875 236.562C96.4844 236.5 96.3047 236.461 96.1484 236.445C95.9922 236.414 95.9141 236.383 95.9141 236.352C95.9141 235.805 95.9531 235.531 96.0312 235.531C96.4375 235.531 97.0156 235.445 97.7656 235.273C98.5156 235.086 99.3672 234.891 100.32 234.688L100.438 234.664C100.453 234.648 100.484 234.641 100.531 234.641L100.578 234.617C100.656 234.617 100.734 234.672 100.812 234.781C100.906 234.875 100.945 234.953 100.93 235.016L100.836 235.742C100.836 235.82 100.844 235.867 100.859 235.883C100.891 235.883 100.945 235.844 101.023 235.766C101.883 234.953 102.969 234.547 104.281 234.547C105.188 234.547 105.922 234.93 106.484 235.695C107.062 236.461 107.352 237.625 107.352 239.188V241.508C107.352 242.539 107.406 243.25 107.516 243.641C107.547 243.703 107.664 243.781 107.867 243.875C108.07 243.969 108.281 244.055 108.5 244.133C108.734 244.195 108.898 244.227 108.992 244.227C109.023 244.227 109.047 244.289 109.062 244.414C109.078 244.539 109.086 244.672 109.086 244.812C109.086 244.953 109.07 245.047 109.039 245.094C108.945 245.094 108.766 245.078 108.5 245.047C108.234 245.031 107.922 245.016 107.562 245C107.219 244.969 106.891 244.945 106.578 244.93C106.266 244.914 106.016 244.906 105.828 244.906C105.578 244.906 105.227 244.922 104.773 244.953C104.336 244.984 103.914 245.008 103.508 245.023C103.102 245.055 102.836 245.078 102.711 245.094C102.648 245.031 102.617 244.867 102.617 244.602C102.617 244.352 102.648 244.227 102.711 244.227C102.836 244.227 103 244.195 103.203 244.133C103.422 244.055 103.625 243.969 103.812 243.875C104.016 243.781 104.125 243.703 104.141 243.641C104.25 243.203 104.305 242.609 104.305 241.859V239.75C104.305 238.594 104.141 237.773 103.812 237.289C103.5 236.789 102.992 236.539 102.289 236.539C101.805 236.539 101.414 236.633 101.117 236.82C100.82 236.992 100.672 237.242 100.672 237.57V241.508C100.672 242.539 100.727 243.25 100.836 243.641C100.867 243.703 100.977 243.781 101.164 243.875C101.352 243.969 101.555 244.055 101.773 244.133C101.992 244.195 102.141 244.227 102.219 244.227C102.25 244.227 102.273 244.289 102.289 244.414C102.305 244.539 102.312 244.672 102.312 244.812C102.312 244.953 102.297 245.047 102.266 245.094C102.141 245.078 101.875 245.055 101.469 245.023C101.062 245.008 100.633 244.984 100.18 244.953C99.7422 244.922 99.3984 244.906 99.1484 244.906C98.9609 244.906 98.7031 244.914 98.375 244.93C98.0625 244.945 97.7344 244.969 97.3906 245C97.0469 245.016 96.7422 245.031 96.4766 245.047C96.2109 245.078 96.0312 245.094 95.9375 245.094ZM114.852 245.141C114.008 245.141 113.211 244.93 112.461 244.508C111.727 244.086 111.125 243.492 110.656 242.727C110.203 241.961 109.977 241.062 109.977 240.031C109.977 238.984 110.219 238.047 110.703 237.219C111.203 236.391 111.875 235.734 112.719 235.25C113.578 234.766 114.539 234.523 115.602 234.523C116.258 234.523 116.805 234.594 117.242 234.734C117.289 234.734 117.312 234.625 117.312 234.406V232.555C117.312 231.898 117.266 231.336 117.172 230.867C117.109 230.617 116.703 230.492 115.953 230.492H115.742C115.648 230.492 115.602 230.336 115.602 230.023C115.602 229.758 115.648 229.625 115.742 229.625C116.648 229.547 117.5 229.414 118.297 229.227C119.109 229.039 119.688 228.891 120.031 228.781L120.266 228.711H120.312C120.375 228.711 120.438 228.758 120.5 228.852C120.562 228.945 120.602 229.031 120.617 229.109C120.445 229.844 120.359 230.633 120.359 231.477V241.555C120.359 241.898 120.375 242.273 120.406 242.68C120.438 243.07 120.508 243.32 120.617 243.43C120.742 243.523 120.883 243.578 121.039 243.594C121.195 243.594 121.398 243.609 121.648 243.641L121.883 243.664C121.93 243.68 121.953 243.773 121.953 243.945C121.953 244.336 121.906 244.531 121.812 244.531C121.422 244.547 120.969 244.594 120.453 244.672C119.953 244.75 119.461 244.828 118.977 244.906C118.492 244.984 118.102 245.047 117.805 245.094L117.453 245.141C117.359 245.156 117.312 245.023 117.312 244.742V244.25C117.312 244.125 117.281 244.094 117.219 244.156C116.562 244.812 115.773 245.141 114.852 245.141ZM115.461 243.711C115.992 243.711 116.43 243.562 116.773 243.266C117.133 242.953 117.312 242.578 117.312 242.141V237.875C117.312 237.688 117.297 237.508 117.266 237.336C117.234 237.164 117.164 236.945 117.055 236.68C116.945 236.414 116.75 236.203 116.469 236.047C116.203 235.875 115.867 235.789 115.461 235.789C114.727 235.789 114.188 236.086 113.844 236.68C113.516 237.258 113.352 238.188 113.352 239.469C113.352 242.297 114.055 243.711 115.461 243.711ZM123.266 245.094C123.203 245.031 123.172 244.867 123.172 244.602C123.172 244.352 123.203 244.227 123.266 244.227C123.391 244.227 123.57 244.195 123.805 244.133C124.039 244.055 124.258 243.969 124.461 243.875C124.664 243.781 124.773 243.703 124.789 243.641C124.898 243.203 124.953 242.609 124.953 241.859V238.648C124.953 237.773 124.812 237.188 124.531 236.891C124.406 236.734 124.234 236.625 124.016 236.562C123.812 236.5 123.633 236.461 123.477 236.445C123.32 236.414 123.242 236.383 123.242 236.352C123.242 235.805 123.281 235.531 123.359 235.531C123.766 235.531 124.328 235.445 125.047 235.273C125.781 235.086 126.555 234.906 127.367 234.734L127.906 234.617C127.984 234.617 128.062 234.672 128.141 234.781C128.219 234.875 128.258 234.953 128.258 235.016C128.242 235.109 128.219 235.297 128.188 235.578C128.172 235.859 128.156 236.016 128.141 236.047C128.922 235.031 129.805 234.523 130.789 234.523C131.492 234.523 132.164 234.812 132.805 235.391C132.805 236.203 132.703 236.805 132.5 237.195C132.312 237.586 131.961 237.781 131.445 237.781C131.133 237.781 130.773 237.602 130.367 237.242C129.961 236.883 129.602 236.703 129.289 236.703C128.977 236.703 128.727 236.828 128.539 237.078C128.352 237.312 128.211 237.617 128.117 237.992C128.039 238.367 128 238.758 128 239.164V241.531C128 242.547 128.055 243.25 128.164 243.641C128.195 243.703 128.305 243.781 128.492 243.875C128.68 243.969 128.883 244.055 129.102 244.133C129.32 244.195 129.469 244.227 129.547 244.227C129.578 244.227 129.602 244.289 129.617 244.414C129.633 244.539 129.641 244.672 129.641 244.812C129.641 244.953 129.625 245.047 129.594 245.094C129.469 245.078 129.203 245.055 128.797 245.023C128.391 245.008 127.961 244.984 127.508 244.953C127.07 244.922 126.727 244.906 126.477 244.906C126.289 244.906 126.031 244.914 125.703 244.93C125.391 244.945 125.062 244.969 124.719 245C124.375 245.016 124.07 245.031 123.805 245.047C123.539 245.078 123.359 245.094 123.266 245.094ZM136.906 245.164C136.047 245.164 135.359 244.93 134.844 244.461C134.344 243.977 134.094 243.375 134.094 242.656C134.094 242.047 134.281 241.516 134.656 241.062C135.047 240.609 135.531 240.25 136.109 239.984C136.328 239.891 136.531 239.812 136.719 239.75C136.906 239.672 137.078 239.602 137.234 239.539C137.828 239.352 138.305 239.219 138.664 239.141C139.023 239.047 139.289 238.969 139.461 238.906C139.602 238.859 139.672 238.742 139.672 238.555V237.711C139.672 236.43 139.281 235.789 138.5 235.789C137.594 235.789 137.141 236.312 137.141 237.359C137.141 237.703 137 237.961 136.719 238.133C136.438 238.289 136.125 238.367 135.781 238.367C135.062 238.367 134.57 238.133 134.305 237.664C134.305 237.258 134.445 236.867 134.727 236.492C135.023 236.117 135.406 235.781 135.875 235.484C136.359 235.172 136.898 234.93 137.492 234.758C138.102 234.57 138.711 234.477 139.32 234.477C140.414 234.477 141.25 234.781 141.828 235.391C142.422 235.984 142.719 237.07 142.719 238.648V242.445C142.719 242.977 142.906 243.242 143.281 243.242C143.562 243.242 143.828 243.141 144.078 242.938C144.188 243 144.242 243.117 144.242 243.289C144.242 243.695 144.188 243.984 144.078 244.156C143.859 244.359 143.5 244.578 143 244.812C142.516 245.031 142.055 245.141 141.617 245.141C141.242 245.141 140.883 245.031 140.539 244.812C140.195 244.578 139.969 244.312 139.859 244.016C139.844 244.016 139.758 244.07 139.602 244.18C139.445 244.289 139.328 244.375 139.25 244.438C138.938 244.641 138.578 244.812 138.172 244.953C137.766 245.094 137.344 245.164 136.906 245.164ZM138.383 243.477C138.789 243.477 139.102 243.383 139.32 243.195C139.555 242.992 139.672 242.75 139.672 242.469V240.102L138.453 240.523C138.125 240.633 137.82 240.797 137.539 241.016C137.273 241.234 137.141 241.523 137.141 241.883C137.141 242.445 137.258 242.852 137.492 243.102C137.742 243.352 138.039 243.477 138.383 243.477ZM155.305 245.234C154.68 245.234 154 245.18 153.266 245.07C152.531 244.977 151.727 244.828 150.852 244.625C150.773 244.281 150.688 243.852 150.594 243.336C150.516 242.82 150.445 242.32 150.383 241.836C150.336 241.336 150.312 240.969 150.312 240.734C150.359 240.578 150.5 240.5 150.734 240.5C151.219 240.5 151.469 240.547 151.484 240.641C151.578 241.109 151.789 241.602 152.117 242.117C152.445 242.617 152.844 243.039 153.312 243.383C153.797 243.727 154.305 243.898 154.836 243.898C156.383 243.898 157.156 243.047 157.156 241.344C157.156 240.891 156.977 240.477 156.617 240.102C156.273 239.727 155.867 239.391 155.398 239.094C154.945 238.797 154.555 238.539 154.227 238.32L153.523 237.852C152.992 237.492 152.492 237.125 152.023 236.75C151.555 236.359 151.172 235.914 150.875 235.414C150.594 234.898 150.453 234.273 150.453 233.539C150.453 232.742 150.695 232.023 151.18 231.383C151.664 230.742 152.289 230.234 153.055 229.859C153.82 229.484 154.617 229.297 155.445 229.297C155.773 229.297 156.109 229.32 156.453 229.367C156.812 229.414 157.117 229.461 157.367 229.508C157.836 229.602 158.234 229.695 158.562 229.789C158.906 229.867 159.18 229.922 159.383 229.953C159.461 230.719 159.523 231.422 159.57 232.062C159.617 232.703 159.641 233.297 159.641 233.844C159.578 234 159.461 234.078 159.289 234.078C158.82 234.078 158.578 234.023 158.562 233.914C158.5 233.383 158.328 232.867 158.047 232.367C157.766 231.867 157.406 231.453 156.969 231.125C156.531 230.781 156.031 230.609 155.469 230.609C154.938 230.609 154.484 230.773 154.109 231.102C153.75 231.43 153.57 231.953 153.57 232.672C153.57 233.312 153.852 233.875 154.414 234.359C154.992 234.844 155.734 235.375 156.641 235.953L157.836 236.703C158.273 236.969 158.688 237.266 159.078 237.594C159.469 237.906 159.789 238.32 160.039 238.836C160.289 239.336 160.414 240.023 160.414 240.898C160.414 241.727 160.172 242.469 159.688 243.125C159.219 243.781 158.594 244.297 157.812 244.672C157.047 245.047 156.211 245.234 155.305 245.234ZM166.25 245.164C165.391 245.164 164.648 244.898 164.023 244.367C163.414 243.82 163.109 242.945 163.109 241.742V236.328H161.586C161.461 236.328 161.398 236.086 161.398 235.602C161.398 235.492 161.414 235.406 161.445 235.344C161.883 235.125 162.273 234.914 162.617 234.711C162.977 234.492 163.289 234.281 163.555 234.078C164.242 233.531 164.742 233.117 165.055 232.836C165.367 232.555 165.531 232.406 165.547 232.391C165.672 232.391 165.805 232.422 165.945 232.484C166.086 232.531 166.156 232.586 166.156 232.648V234.945H168.688C168.812 234.945 168.875 235.023 168.875 235.18C168.875 235.648 168.797 236.031 168.641 236.328H166.156V241.883C166.156 243.07 166.578 243.664 167.422 243.664C167.859 243.664 168.164 243.609 168.336 243.5C168.523 243.375 168.648 243.312 168.711 243.312C168.773 243.312 168.836 243.391 168.898 243.547C168.977 243.703 169.016 243.82 169.016 243.898C169.016 244.023 168.859 244.188 168.547 244.391C168.25 244.594 167.883 244.773 167.445 244.93C167.023 245.086 166.625 245.164 166.25 245.164ZM175.719 245.164C174.703 245.164 173.773 244.93 172.93 244.461C172.102 243.977 171.438 243.336 170.938 242.539C170.453 241.727 170.211 240.828 170.211 239.844C170.211 238.844 170.453 237.945 170.938 237.148C171.438 236.352 172.102 235.719 172.93 235.25C173.773 234.766 174.703 234.523 175.719 234.523C176.75 234.523 177.68 234.766 178.508 235.25C179.336 235.719 179.992 236.352 180.477 237.148C180.977 237.945 181.227 238.844 181.227 239.844C181.227 240.828 180.984 241.727 180.5 242.539C180.016 243.336 179.352 243.977 178.508 244.461C177.68 244.93 176.75 245.164 175.719 245.164ZM175.953 243.875C176.391 243.875 176.75 243.727 177.031 243.43C177.312 243.133 177.516 242.742 177.641 242.258C177.781 241.758 177.852 241.227 177.852 240.664C177.852 237.43 177.031 235.812 175.391 235.812C174.953 235.812 174.594 235.969 174.312 236.281C174.047 236.594 173.852 237 173.727 237.5C173.602 238 173.539 238.539 173.539 239.117C173.539 242.289 174.344 243.875 175.953 243.875ZM182.562 245.094C182.5 245.031 182.469 244.867 182.469 244.602C182.469 244.352 182.5 244.227 182.562 244.227C182.688 244.227 182.867 244.195 183.102 244.133C183.336 244.055 183.555 243.969 183.758 243.875C183.961 243.781 184.07 243.703 184.086 243.641C184.195 243.203 184.25 242.609 184.25 241.859V232.555C184.25 232.195 184.234 231.875 184.203 231.594C184.188 231.312 184.164 231.07 184.133 230.867C184.07 230.617 183.664 230.492 182.914 230.492H182.703C182.609 230.492 182.562 230.336 182.562 230.023C182.562 229.758 182.609 229.625 182.703 229.625C183.609 229.547 184.461 229.414 185.258 229.227C186.07 229.039 186.648 228.891 186.992 228.781L187.227 228.711H187.273C187.336 228.711 187.398 228.758 187.461 228.852C187.523 228.945 187.562 229.031 187.578 229.109C187.406 229.844 187.32 230.633 187.32 231.477L187.297 241.508C187.297 242.539 187.352 243.25 187.461 243.641C187.492 243.703 187.609 243.781 187.812 243.875C188.016 243.969 188.227 244.055 188.445 244.133C188.68 244.195 188.844 244.227 188.938 244.227C188.969 244.227 188.992 244.289 189.008 244.414C189.023 244.539 189.031 244.672 189.031 244.812C189.031 244.953 189.016 245.047 188.984 245.094C188.891 245.094 188.711 245.078 188.445 245.047C188.18 245.031 187.867 245.016 187.508 245C187.164 244.969 186.836 244.945 186.523 244.93C186.211 244.914 185.961 244.906 185.773 244.906C185.586 244.906 185.328 244.914 185 244.93C184.688 244.945 184.359 244.969 184.016 245C183.672 245.016 183.367 245.031 183.102 245.047C182.836 245.078 182.656 245.094 182.562 245.094ZM190.742 245C190.43 244.812 190.273 244.633 190.273 244.461C190.273 244.43 190.305 244.359 190.367 244.25L195.078 236.352L193.648 236.328C193.242 236.312 192.883 236.398 192.57 236.586C192.258 236.773 192 237 191.797 237.266C191.594 237.516 191.445 237.75 191.352 237.969C191.305 238.062 191.109 238.109 190.766 238.109C190.578 238.109 190.484 238.094 190.484 238.062C190.484 238.031 190.492 237.906 190.508 237.688C190.539 237.469 190.586 237.164 190.648 236.773C190.773 235.992 190.844 235.375 190.859 234.922C191.781 235.016 192.523 235.062 193.086 235.062H195.945C196.445 235.062 196.945 235.047 197.445 235.016C197.945 234.984 198.453 234.938 198.969 234.875C199.016 234.938 199.039 235.125 199.039 235.438L194.164 243.242C194.055 243.398 194 243.508 194 243.57C194 243.68 194.094 243.734 194.281 243.734H195.734C196.984 243.734 197.828 243.141 198.266 241.953C198.312 241.812 198.523 241.742 198.898 241.742C199.008 241.742 199.094 241.773 199.156 241.836L198.758 245H190.742Z" fill="#212529"/>
<path d="M39.815 275.1C41.365 275.1 42.58 275.53 43.46 276.39C44.35 277.24 44.795 278.46 44.795 280.05C44.795 281.64 44.35 282.865 43.46 283.725C42.58 284.575 41.365 285 39.815 285H36.62V275.1H39.815ZM39.935 283.875C41.065 283.875 41.945 283.54 42.575 282.87C43.215 282.19 43.535 281.25 43.535 280.05C43.535 278.85 43.215 277.915 42.575 277.245C41.945 276.565 41.065 276.225 39.935 276.225H37.82V283.875H39.935ZM47.4305 285V275.1H54.3755V276.225H48.6305V279.42H53.1005V280.545H48.6305V283.875H54.6005V285H47.4305ZM60.176 274.95C61.046 274.95 61.796 275.13 62.426 275.49C63.056 275.84 63.581 276.36 64.001 277.05L62.996 277.83C62.626 277.19 62.206 276.74 61.736 276.48C61.276 276.21 60.716 276.075 60.056 276.075C59.526 276.075 59.086 276.15 58.736 276.3C58.396 276.45 58.146 276.65 57.986 276.9C57.826 277.14 57.746 277.415 57.746 277.725C57.746 278.075 57.856 278.385 58.076 278.655C58.296 278.915 58.736 279.12 59.396 279.27L61.541 279.75C62.491 279.96 63.151 280.28 63.521 280.71C63.901 281.13 64.091 281.655 64.091 282.285C64.091 282.845 63.931 283.345 63.611 283.785C63.301 284.215 62.861 284.55 62.291 284.79C61.721 285.03 61.051 285.15 60.281 285.15C59.561 285.15 58.926 285.055 58.376 284.865C57.836 284.665 57.371 284.4 56.981 284.07C56.591 283.74 56.271 283.37 56.021 282.96L57.071 282.105C57.261 282.485 57.506 282.82 57.806 283.11C58.106 283.4 58.466 283.625 58.886 283.785C59.316 283.945 59.806 284.025 60.356 284.025C60.866 284.025 61.306 283.965 61.676 283.845C62.056 283.715 62.346 283.53 62.546 283.29C62.746 283.04 62.846 282.74 62.846 282.39C62.846 282.07 62.741 281.785 62.531 281.535C62.321 281.275 61.926 281.08 61.346 280.95L59.021 280.425C58.411 280.285 57.916 280.095 57.536 279.855C57.166 279.605 56.896 279.315 56.726 278.985C56.566 278.645 56.486 278.28 56.486 277.89C56.486 277.36 56.631 276.875 56.921 276.435C57.221 275.985 57.646 275.625 58.196 275.355C58.756 275.085 59.416 274.95 60.176 274.95ZM67.8054 275.1V285H66.6054V275.1H67.8054ZM75.0338 285.15C74.0938 285.15 73.2788 284.945 72.5888 284.535C71.9088 284.115 71.3788 283.525 70.9988 282.765C70.6288 282.005 70.4438 281.1 70.4438 280.05C70.4438 279 70.6388 278.095 71.0288 277.335C71.4288 276.575 71.9838 275.99 72.6938 275.58C73.4038 275.16 74.2188 274.95 75.1388 274.95C76.1188 274.95 76.9138 275.135 77.5238 275.505C78.1438 275.875 78.6438 276.445 79.0238 277.215L77.9288 277.815C77.7088 277.245 77.3588 276.815 76.8788 276.525C76.4088 276.225 75.8288 276.075 75.1388 276.075C74.4688 276.075 73.8738 276.235 73.3538 276.555C72.8438 276.865 72.4388 277.32 72.1388 277.92C71.8488 278.51 71.7038 279.22 71.7038 280.05C71.7038 280.88 71.8288 281.595 72.0788 282.195C72.3388 282.785 72.7188 283.24 73.2188 283.56C73.7288 283.87 74.3488 284.025 75.0788 284.025C75.4888 284.025 75.8688 283.975 76.2188 283.875C76.5788 283.765 76.8888 283.605 77.1488 283.395C77.4188 283.185 77.6288 282.92 77.7788 282.6C77.9288 282.28 78.0038 281.905 78.0038 281.475V281.13H74.8538V280.005H79.0988V285H78.1538L78.0938 283.155L78.3488 283.2C78.0888 283.82 77.6788 284.3 77.1188 284.64C76.5588 284.98 75.8638 285.15 75.0338 285.15ZM89.6683 275.1V285H88.1833L84.0433 278.37L82.9933 276.51H82.9783L83.0383 278.01V285H81.8983V275.1H83.3833L87.5083 281.7L88.5733 283.605H88.5883L88.5283 282.09V275.1H89.6683ZM92.9139 285V275.1H99.8589V276.225H94.1139V279.42H98.5839V280.545H94.1139V283.875H100.084V285H92.9139ZM106.229 275.1C107.239 275.1 108.049 275.36 108.659 275.88C109.269 276.4 109.574 277.105 109.574 277.995C109.574 278.885 109.264 279.58 108.644 280.08C108.034 280.57 107.224 280.815 106.214 280.815L106.109 280.89H103.679V285H102.479V275.1H106.229ZM106.214 279.765C106.924 279.765 107.449 279.62 107.789 279.33C108.139 279.03 108.314 278.585 108.314 277.995C108.314 277.405 108.139 276.965 107.789 276.675C107.449 276.375 106.924 276.225 106.214 276.225H103.679V279.765H106.214ZM106.904 280.005L110.174 285H108.749L105.899 280.665L106.904 280.005Z" fill="#212529" fill-opacity="0.75"/>
<defs>
<filter id="filter0_d_6_367" x="0" y="0" width="278" height="325" filterUnits="userSpaceOnUse" color-interpolation-filters="sRGB">
<feFlood flood-opacity="0" result="BackgroundImageFix"/>
<feColorMatrix in="SourceAlpha" type="matrix" values="0 0 0 0 0 0 0 0 0 0 0 0 0 0 0 0 0 0 127 0" result="hardAlpha"/>
<feMorphology radius="1" operator="dilate" in="SourceAlpha" result="effect1_dropShadow_6_367"/>
<feOffset dx="3" dy="4"/>
<feGaussianBlur stdDeviation="6"/>
<feComposite in2="hardAlpha" operator="out"/>
<feColorMatrix type="matrix" values="0 0 0 0 0 0 0 0 0 0 0 0 0 0 0 0 0 0 0.25 0"/>
<feBlend mode="normal" in2="BackgroundImageFix" result="effect1_dropShadow_6_367"/>
<feBlend mode="normal" in="SourceGraphic" in2="effect1_dropShadow_6_367" result="shape"/>
</filter>
</defs>
</svg>
