<svg width="305" height="325" viewBox="0 0 305 325" fill="none" xmlns="http://www.w3.org/2000/svg">
<g filter="url(#filter0_d_6_455)">
<rect x="10" y="9" width="279" height="299" rx="5" fill="white"/>
</g>
<circle cx="149" cy="116.5" r="87" stroke="black"/>
<mask id="mask0_6_455" style="mask-type:alpha" maskUnits="userSpaceOnUse" x="61" y="29" width="176" height="175">
<circle cx="149" cy="116.5" r="87.5" fill="#D9D9D9"/>
</mask>
<g mask="url(#mask0_6_455)">
<path d="M133.819 123.456C142.642 131.833 152.732 141.577 151.873 153.714C151.622 157.252 150.293 160.845 147.607 163.163C143.812 166.439 137.885 166.789 134.741 170.692C131.904 174.213 132.499 179.67 135.242 183.264C137.986 186.856 142.401 188.82 146.829 189.735C156.948 191.826 167.985 188.866 175.702 181.993C176.921 180.908 178.088 179.69 178.695 178.176C179.761 175.515 178.918 172.51 178.013 169.791C174.975 160.651 171.265 151.071 173.341 141.667C175.673 131.109 184.739 123.404 189.075 113.499C193.107 104.285 192.679 93.2376 187.947 84.3637C186.17 81.0312 183.696 77.8994 180.277 76.2995C177.05 74.7891 173.345 74.7943 169.784 74.9034C156.179 75.3211 131.771 73.8467 122.167 85.7516C111.895 98.4827 124.473 114.581 133.819 123.456Z" fill="#FFE7FB"/>
<path d="M120.56 192.678C119.199 190.672 117.691 188.676 115.614 187.424C110.954 184.617 104.626 186.442 100.68 190.187C96.732 193.932 94.6125 199.158 92.6052 204.216C91.5414 206.893 90.4786 209.572 89.4158 212.25C88.0659 215.65 86.7027 219.107 86.3621 222.749C86.0226 226.391 86.8406 230.309 89.3643 232.957C91.527 235.228 94.6527 236.305 97.7176 236.971C104.852 238.518 112.239 238.257 119.536 237.988C145.499 237.03 129.323 205.591 120.56 192.678Z" fill="#6987FF"/>
<path d="M174.173 210.792C174.95 206.471 175.193 202.065 176.04 197.756C176.954 193.103 178.573 188.587 180.823 184.413C182.058 182.123 183.661 179.788 186.118 178.935C188.517 178.103 191.212 178.901 193.361 180.252C199.858 184.335 202.269 192.476 204.18 199.906C206.492 208.895 208.804 217.882 211.116 226.869C211.583 228.683 211.837 231.055 210.224 232.006C209.594 232.375 208.829 232.406 208.098 232.426C197.359 232.708 184.541 234.211 173.975 232.071C167.253 230.709 168.372 231.405 170.091 224.828C171.329 220.092 173.299 215.658 174.173 210.792Z" fill="#6987FF"/>
<path d="M141.578 220.098C142.733 223.042 144.037 226.173 146.683 227.903C150.343 230.298 155.529 229.057 158.696 226.041C161.863 223.023 163.371 218.665 164.253 214.381C165.135 210.097 165.506 205.686 166.923 201.548C168.318 197.468 170.723 193.657 171.113 189.362C171.219 188.205 170.988 186.76 169.892 186.373C169.412 186.205 168.883 186.296 168.385 186.403C164.253 187.297 160.347 189.211 156.141 189.643C148.874 190.389 137.013 181.687 133.309 190.068C129.888 197.808 138.812 213.056 141.578 220.098Z" fill="#DAC8FF"/>
<path d="M137.089 119.671C134.587 119.695 132.087 119.719 129.585 119.744C128.867 119.751 128.051 119.802 127.591 120.353C127.023 121.032 127.36 122.138 128.053 122.688C128.748 123.236 129.67 123.376 130.546 123.496C131.674 123.652 132.8 123.806 133.928 123.962C135.518 124.181 137.32 124.342 138.544 123.307C139.769 122.271 139.309 119.648 137.71 119.771" fill="#F03FA3"/>
<path d="M172.256 120.927C169.755 120.951 167.254 120.975 164.754 121C164.035 121.007 163.219 121.058 162.758 121.61C162.191 122.289 162.526 123.394 163.221 123.943C163.914 124.491 164.837 124.631 165.714 124.751C166.84 124.908 167.968 125.062 169.095 125.218C170.684 125.436 172.487 125.598 173.712 124.563C174.936 123.527 174.476 120.904 172.878 121.026" fill="#F03FA3"/>
<path d="M90.4129 229.588L95.5881 205.79C98.3146 193.248 105.98 182.342 116.855 175.52L136.969 162.906L137.514 157.135L138.934 142.227L138.975 141.805" stroke="black" stroke-miterlimit="10"/>
<path d="M203.618 126.925C201.044 117.914 192.158 72.4994 192.158 72.4994L172.602 71.486C181.291 79.1067 183.7 89.3232 183.7 89.3232C183.298 101.566 181.405 111.299 178.73 119.046H178.72C175.633 128.007 171.467 134.305 167.3 138.708C165.931 140.159 164.553 141.404 163.215 142.463C160.633 144.532 158.184 145.94 156.157 146.876C152.854 148.43 150.622 148.77 150.622 148.77C144.243 146.384 139.109 142.854 134.973 138.708C116.834 120.476 117.853 90.0949 117.4 89.3232C117.4 89.3232 116.99 76.8432 128.011 69.1741L110.101 68.2461C110.101 68.2461 105.238 95.91 102.178 116.169C99.1183 136.428 102.655 149.772 116.188 151.188C129.722 152.604 181.052 151.188 181.052 151.188C181.052 151.188 210.55 151.188 203.618 126.925Z" fill="black"/>
<path d="M163.194 142.288L163.215 142.463L163.781 148.452L165.149 162.907L171.898 167.146H171.919V167.156L185.263 175.52C196.138 182.343 203.803 193.249 206.53 205.79L209.75 220.615L211.705 229.588" stroke="black" stroke-miterlimit="10"/>
<path d="M130.105 98.0235C130.105 98.0235 136.003 96.0142 141.901 98.0235" stroke="black" stroke-width="2" stroke-miterlimit="10" stroke-linecap="round" stroke-linejoin="bevel"/>
<path d="M137.891 106.87C137.891 108.532 137.045 109.877 136.003 109.877C134.962 109.877 134.116 108.532 134.116 106.87C134.116 105.209 134.962 103.863 136.003 103.863C137.045 103.863 137.891 105.209 137.891 106.87Z" fill="black"/>
<path d="M171.74 98.0233C171.74 98.0233 165.842 96.0139 159.944 98.0233" stroke="black" stroke-width="2" stroke-miterlimit="10" stroke-linecap="round" stroke-linejoin="bevel"/>
<path d="M163.954 106.87C163.954 108.532 164.799 109.878 165.841 109.878C166.883 109.878 167.729 108.532 167.729 106.87C167.729 105.209 166.883 103.863 165.841 103.863C164.799 103.863 163.954 105.209 163.954 106.87Z" fill="black"/>
<path d="M149.611 106.901C149.729 107.159 150.246 111.53 146.943 114.376C146.943 114.376 146.26 117.249 151.214 117.315" stroke="black" stroke-miterlimit="10"/>
<path d="M143.829 126.29C143.829 126.29 152.149 129.048 158.598 126.432" stroke="black" stroke-miterlimit="10"/>
<path d="M118.43 100.816C118.43 100.816 111.524 92.1287 107.968 96.1567C104.412 100.185 111.403 119.696 122.377 117.411" stroke="black" stroke-miterlimit="10"/>
<path d="M112.487 103.966C112.487 103.966 117.678 103.995 119.891 108.113" stroke="black" stroke-miterlimit="10"/>
<path d="M115.241 108.105C115.241 108.105 115.407 106.331 118.731 106.543" stroke="black" stroke-miterlimit="10"/>
<path d="M182.937 100.816C182.937 100.816 189.843 92.1288 193.398 96.1568C196.955 100.185 189.963 119.696 178.99 117.411" fill="#F7F6F2"/>
<path d="M189.073 103.967C189.073 103.967 183.882 103.995 181.669 108.113" stroke="black" stroke-miterlimit="10"/>
<path d="M186.318 108.105C186.318 108.105 186.152 106.331 182.828 106.543" stroke="black" stroke-miterlimit="10"/>
<path d="M117.4 89.3234C117.853 90.095 116.835 120.476 134.973 138.708C139.109 142.854 144.243 146.384 150.622 148.77C150.622 148.77 152.855 148.431 156.157 146.877C158.184 145.94 160.633 144.532 163.215 142.463C164.553 141.404 165.932 140.159 167.3 138.708C171.467 134.305 175.634 128.007 178.72 119.046H178.731C181.406 111.299 183.299 101.566 183.7 89.3234" stroke="black" stroke-miterlimit="10"/>
<path d="M175.529 79.6227C175.529 79.6227 154.111 100.672 118.431 102.875C118.431 102.875 107.428 91.2231 110.102 70.3043C112.776 49.3856 157.92 25.4657 183.707 58.3367C183.707 58.3367 204.547 74.0782 182.936 102.875C182.936 102.875 184.179 97.5526 175.529 79.6227Z" fill="black"/>
<path d="M126.16 169.684C126.16 169.684 138.93 183.53 152.253 187.516C152.253 187.516 166.486 185.509 175.174 169.192" stroke="black" stroke-miterlimit="10"/>
<path d="M123.787 171.173C123.787 171.173 133.378 186.047 151.938 190.765C151.938 190.765 172.4 185.928 177.503 170.653" stroke="black" stroke-miterlimit="10"/>
<path d="M122.395 172.045C122.395 172.045 132.75 204.239 137.311 229.587" stroke="black" stroke-miterlimit="10"/>
<path d="M111.828 179.154C111.828 179.154 107.585 193.754 116.236 203.033C124.886 212.313 135.36 219.841 135.36 219.841" stroke="black" stroke-miterlimit="10"/>
<path d="M179.734 172.045C179.734 172.045 169.377 204.239 164.817 229.587" stroke="black" stroke-miterlimit="10"/>
<path d="M190.303 179.154C190.303 179.154 194.545 193.753 185.894 203.033C177.244 212.313 166.77 219.841 166.77 219.841" stroke="black" stroke-miterlimit="10"/>
<path d="M163.781 148.452C156.734 150.859 144.48 154.862 137.515 157.136L138.934 142.228C142.268 144.851 146.136 147.093 150.622 148.77C150.622 148.77 152.855 148.432 156.158 146.877C158.184 145.941 160.633 144.532 163.216 142.463L163.781 148.452Z" fill="black"/>
</g>
<path d="M48.7266 245.094C48.6641 245.031 48.6328 244.898 48.6328 244.695C48.6328 244.383 48.6641 244.227 48.7266 244.227C48.8516 244.227 49.0312 244.203 49.2656 244.156C49.5 244.109 49.7188 244.047 49.9219 243.969C50.125 243.875 50.2422 243.789 50.2734 243.711C50.3672 243.352 50.4141 242.664 50.4141 241.648V232.789C50.4141 231.914 50.3672 231.305 50.2734 230.961C50.2422 230.867 50.1172 230.773 49.8984 230.68C49.6953 230.57 49.4766 230.484 49.2422 230.422C49.0078 230.344 48.8281 230.305 48.7031 230.305C48.6406 230.305 48.6094 230.164 48.6094 229.883C48.6094 229.633 48.6328 229.484 48.6797 229.438C49.3828 229.469 50.0234 229.5 50.6016 229.531C51.1797 229.547 51.6875 229.555 52.125 229.555C52.3438 229.555 52.5781 229.555 52.8281 229.555C53.0938 229.539 53.3594 229.523 53.625 229.508C53.8906 229.492 54.1484 229.484 54.3984 229.484C54.6484 229.484 54.8906 229.484 55.125 229.484C56.0625 229.484 56.9297 229.609 57.7266 229.859C58.2734 230.016 58.7734 230.281 59.2266 230.656C59.6953 231.016 60.0703 231.461 60.3516 231.992C60.6328 232.508 60.7734 233.102 60.7734 233.773C60.7734 234.617 60.5469 235.391 60.0938 236.094C59.6562 236.797 59.0547 237.367 58.2891 237.805C57.5391 238.227 56.6953 238.438 55.7578 238.438C55.4453 238.438 55.1328 238.391 54.8203 238.297C54.5234 238.203 54.3203 238.078 54.2109 237.922C54.1484 237.828 54.1094 237.656 54.0938 237.406C54.0781 237.156 54.1094 237.031 54.1875 237.031C54.4062 237.156 54.7578 237.219 55.2422 237.219C56.5547 237.219 57.2109 236.156 57.2109 234.031C57.2109 231.891 56.4922 230.82 55.0547 230.82C54.5078 230.82 54.1484 230.883 53.9766 231.008C53.7891 231.148 53.6953 231.914 53.6953 233.305V241.695C53.6953 242.523 53.75 243.164 53.8594 243.617C53.8906 243.742 54.0234 243.852 54.2578 243.945C54.4922 244.039 54.75 244.109 55.0312 244.156C55.3125 244.203 55.5312 244.227 55.6875 244.227C55.75 244.227 55.7812 244.375 55.7812 244.672C55.7812 244.828 55.7656 244.969 55.7344 245.094C53.8594 245 52.6641 244.953 52.1484 244.953L48.7266 245.094ZM67.0312 245.164C66.0781 245.164 65.1953 244.922 64.3828 244.438C63.5859 243.953 62.9453 243.305 62.4609 242.492C61.9922 241.68 61.7578 240.789 61.7578 239.82C61.7578 238.82 61.9688 237.922 62.3906 237.125C62.8281 236.328 63.4297 235.695 64.1953 235.227C64.9609 234.758 65.8438 234.523 66.8438 234.523C67.8281 234.523 68.6641 234.758 69.3516 235.227C70.0547 235.68 70.5859 236.25 70.9453 236.938C71.3203 237.609 71.5078 238.289 71.5078 238.977C71.5078 239.336 71.4297 239.57 71.2734 239.68C71.1328 239.789 70.8438 239.844 70.4062 239.844H65.1094C65.0156 239.844 64.9688 239.898 64.9688 240.008C64.9688 240.57 65.0703 241.102 65.2734 241.602C65.4922 242.102 65.8047 242.508 66.2109 242.82C66.6328 243.133 67.1406 243.289 67.7344 243.289C68.2656 243.289 68.7578 243.211 69.2109 243.055C69.5234 242.961 69.7656 242.875 69.9375 242.797C70.1094 242.719 70.2656 242.633 70.4062 242.539C70.5625 242.43 70.7422 242.297 70.9453 242.141C71.0859 242.203 71.1562 242.352 71.1562 242.586C71.1562 242.789 71.125 242.945 71.0625 243.055C70.9688 243.305 70.7188 243.594 70.3125 243.922C69.9219 244.25 69.4375 244.539 68.8594 244.789C68.2969 245.039 67.6875 245.164 67.0312 245.164ZM65.1328 238.555H68.1094C68.3281 238.555 68.4375 238.406 68.4375 238.109C68.4375 237.516 68.2734 236.984 67.9453 236.516C67.6328 236.047 67.2266 235.812 66.7266 235.812C66.2734 235.812 65.9141 235.977 65.6484 236.305C65.3984 236.617 65.2188 236.969 65.1094 237.359C65.0156 237.75 64.9688 238.07 64.9688 238.32C64.9688 238.477 65.0234 238.555 65.1328 238.555ZM76.9688 250.109C76.1875 250.109 75.4766 250 74.8359 249.781C74.1953 249.578 73.6875 249.281 73.3125 248.891C72.9375 248.5 72.75 248.047 72.75 247.531C72.75 247.188 72.9297 246.82 73.2891 246.43C73.6641 246.039 74.125 245.758 74.6719 245.586C74.2656 245.414 73.8984 245.141 73.5703 244.766C73.2422 244.375 73.0781 243.953 73.0781 243.5C73.0781 243.109 73.25 242.773 73.5938 242.492C73.9531 242.211 74.375 241.938 74.8594 241.672C74.5625 241.5 74.2734 241.242 73.9922 240.898C73.7109 240.555 73.4844 240.164 73.3125 239.727C73.1406 239.273 73.0547 238.828 73.0547 238.391C73.0547 237.531 73.25 236.812 73.6406 236.234C74.0312 235.656 74.5547 235.219 75.2109 234.922C75.8828 234.625 76.625 234.477 77.4375 234.477C78.0156 234.477 78.6797 234.578 79.4297 234.781C79.8047 234.891 80.1406 234.969 80.4375 235.016C80.75 235.062 81.0156 235.086 81.2344 235.086H82.5234C82.5547 235.086 82.6016 235.156 82.6641 235.297C82.7422 235.438 82.8125 235.586 82.875 235.742C82.9375 235.883 82.9688 235.992 82.9688 236.07C82.9688 236.289 82.9219 236.398 82.8281 236.398H81.4453C81.3828 236.414 81.3516 236.438 81.3516 236.469L81.5391 237.102C81.5859 237.305 81.625 237.508 81.6562 237.711C81.6875 237.914 81.7031 238.102 81.7031 238.273C81.7031 238.93 81.5156 239.555 81.1406 240.148C80.7812 240.742 80.2891 241.234 79.6641 241.625C79.0391 242 78.3203 242.188 77.5078 242.188C77.1953 242.188 76.9062 242.18 76.6406 242.164C76.375 242.133 76.1328 242.102 75.9141 242.07C75.7109 242.133 75.5625 242.242 75.4688 242.398C75.3906 242.555 75.3516 242.68 75.3516 242.773C75.3516 242.914 75.4844 243.023 75.75 243.102C75.9688 243.164 76.2969 243.219 76.7344 243.266C77.1719 243.312 77.6094 243.344 78.0469 243.359C78.4844 243.375 78.8203 243.383 79.0547 243.383C81.5391 243.492 82.7969 244.312 82.8281 245.844C82.8281 246.422 82.6562 246.969 82.3125 247.484C81.9844 248 81.5312 248.453 80.9531 248.844C80.3906 249.234 79.7578 249.539 79.0547 249.758C78.3672 249.992 77.6719 250.109 76.9688 250.109ZM77.4141 240.969C78.0078 240.969 78.3672 240.75 78.4922 240.312C78.6172 239.875 78.6797 239.344 78.6797 238.719C78.6797 237.719 78.5859 236.969 78.3984 236.469C78.2109 235.969 77.8359 235.719 77.2734 235.719C76.8984 235.719 76.625 235.828 76.4531 236.047C76.2812 236.266 76.1719 236.547 76.125 236.891C76.0938 237.234 76.0781 237.602 76.0781 237.992V238.109C76.0781 238.609 76.1094 239.078 76.1719 239.516C76.2344 239.953 76.3594 240.305 76.5469 240.57C76.7344 240.836 77.0234 240.969 77.4141 240.969ZM77.3672 248.68C78.1797 248.68 78.8359 248.531 79.3359 248.234C79.8516 247.938 80.1094 247.492 80.1094 246.898C80.1094 246.195 78.7969 245.844 76.1719 245.844C75.7812 245.953 75.4844 246.086 75.2812 246.242C75.0781 246.398 74.9766 246.656 74.9766 247.016C74.9766 247.484 75.2188 247.875 75.7031 248.188C76.2031 248.516 76.7578 248.68 77.3672 248.68ZM89.1797 245.094C89.1172 245.031 89.0859 244.898 89.0859 244.695C89.0859 244.383 89.1172 244.227 89.1797 244.227C89.3047 244.227 89.4844 244.203 89.7188 244.156C89.9531 244.109 90.1719 244.047 90.375 243.969C90.5781 243.875 90.6953 243.789 90.7266 243.711C90.8203 243.352 90.8672 242.664 90.8672 241.648V232.695C90.8672 231.742 90.8047 231.156 90.6797 230.938C90.6328 230.844 90.5078 230.758 90.3047 230.68C90.1172 230.586 89.9219 230.508 89.7188 230.445C89.5156 230.383 89.3516 230.352 89.2266 230.352C89.1641 230.352 89.1328 230.219 89.1328 229.953C89.1328 229.672 89.1484 229.516 89.1797 229.484L92.5781 229.625C92.7344 229.641 93.0859 229.633 93.6328 229.602C94.1797 229.57 94.9219 229.531 95.8594 229.484C95.9062 229.625 95.9297 229.766 95.9297 229.906C95.9297 230.203 95.8984 230.352 95.8359 230.352C95.7422 230.352 95.5781 230.383 95.3438 230.445C95.1094 230.508 94.8828 230.586 94.6641 230.68C94.4609 230.758 94.3438 230.836 94.3125 230.914C94.25 231.117 94.2031 231.383 94.1719 231.711C94.1562 232.023 94.1484 232.383 94.1484 232.789V241.672C94.1484 242.422 94.2109 242.984 94.3359 243.359C94.3984 243.609 94.9297 243.734 95.9297 243.734H96.5391C97.5078 243.734 98.3828 243.531 99.1641 243.125C99.4297 242.984 99.7266 242.719 100.055 242.328C100.398 241.938 100.664 241.5 100.852 241.016C100.883 240.922 100.992 240.875 101.18 240.875C101.555 240.875 101.789 240.922 101.883 241.016C101.102 243.172 100.68 244.516 100.617 245.047C100.18 245.047 99.6094 245.039 98.9062 245.023C98.2188 245.023 97.3984 245.016 96.4453 245C95.4922 244.984 94.6953 244.969 94.0547 244.953C93.4297 244.938 92.9453 244.938 92.6016 244.953L89.1797 245.094ZM108.117 245.164C107.164 245.164 106.281 244.922 105.469 244.438C104.672 243.953 104.031 243.305 103.547 242.492C103.078 241.68 102.844 240.789 102.844 239.82C102.844 238.82 103.055 237.922 103.477 237.125C103.914 236.328 104.516 235.695 105.281 235.227C106.047 234.758 106.93 234.523 107.93 234.523C108.914 234.523 109.75 234.758 110.438 235.227C111.141 235.68 111.672 236.25 112.031 236.938C112.406 237.609 112.594 238.289 112.594 238.977C112.594 239.336 112.516 239.57 112.359 239.68C112.219 239.789 111.93 239.844 111.492 239.844H106.195C106.102 239.844 106.055 239.898 106.055 240.008C106.055 240.57 106.156 241.102 106.359 241.602C106.578 242.102 106.891 242.508 107.297 242.82C107.719 243.133 108.227 243.289 108.82 243.289C109.352 243.289 109.844 243.211 110.297 243.055C110.609 242.961 110.852 242.875 111.023 242.797C111.195 242.719 111.352 242.633 111.492 242.539C111.648 242.43 111.828 242.297 112.031 242.141C112.172 242.203 112.242 242.352 112.242 242.586C112.242 242.789 112.211 242.945 112.148 243.055C112.055 243.305 111.805 243.594 111.398 243.922C111.008 244.25 110.523 244.539 109.945 244.789C109.383 245.039 108.773 245.164 108.117 245.164ZM106.219 238.555H109.195C109.414 238.555 109.523 238.406 109.523 238.109C109.523 237.516 109.359 236.984 109.031 236.516C108.719 236.047 108.312 235.812 107.812 235.812C107.359 235.812 107 235.977 106.734 236.305C106.484 236.617 106.305 236.969 106.195 237.359C106.102 237.75 106.055 238.07 106.055 238.32C106.055 238.477 106.109 238.555 106.219 238.555ZM118.055 250.109C117.273 250.109 116.562 250 115.922 249.781C115.281 249.578 114.773 249.281 114.398 248.891C114.023 248.5 113.836 248.047 113.836 247.531C113.836 247.188 114.016 246.82 114.375 246.43C114.75 246.039 115.211 245.758 115.758 245.586C115.352 245.414 114.984 245.141 114.656 244.766C114.328 244.375 114.164 243.953 114.164 243.5C114.164 243.109 114.336 242.773 114.68 242.492C115.039 242.211 115.461 241.938 115.945 241.672C115.648 241.5 115.359 241.242 115.078 240.898C114.797 240.555 114.57 240.164 114.398 239.727C114.227 239.273 114.141 238.828 114.141 238.391C114.141 237.531 114.336 236.812 114.727 236.234C115.117 235.656 115.641 235.219 116.297 234.922C116.969 234.625 117.711 234.477 118.523 234.477C119.102 234.477 119.766 234.578 120.516 234.781C120.891 234.891 121.227 234.969 121.523 235.016C121.836 235.062 122.102 235.086 122.32 235.086H123.609C123.641 235.086 123.688 235.156 123.75 235.297C123.828 235.438 123.898 235.586 123.961 235.742C124.023 235.883 124.055 235.992 124.055 236.07C124.055 236.289 124.008 236.398 123.914 236.398H122.531C122.469 236.414 122.438 236.438 122.438 236.469L122.625 237.102C122.672 237.305 122.711 237.508 122.742 237.711C122.773 237.914 122.789 238.102 122.789 238.273C122.789 238.93 122.602 239.555 122.227 240.148C121.867 240.742 121.375 241.234 120.75 241.625C120.125 242 119.406 242.188 118.594 242.188C118.281 242.188 117.992 242.18 117.727 242.164C117.461 242.133 117.219 242.102 117 242.07C116.797 242.133 116.648 242.242 116.555 242.398C116.477 242.555 116.438 242.68 116.438 242.773C116.438 242.914 116.57 243.023 116.836 243.102C117.055 243.164 117.383 243.219 117.82 243.266C118.258 243.312 118.695 243.344 119.133 243.359C119.57 243.375 119.906 243.383 120.141 243.383C122.625 243.492 123.883 244.312 123.914 245.844C123.914 246.422 123.742 246.969 123.398 247.484C123.07 248 122.617 248.453 122.039 248.844C121.477 249.234 120.844 249.539 120.141 249.758C119.453 249.992 118.758 250.109 118.055 250.109ZM118.5 240.969C119.094 240.969 119.453 240.75 119.578 240.312C119.703 239.875 119.766 239.344 119.766 238.719C119.766 237.719 119.672 236.969 119.484 236.469C119.297 235.969 118.922 235.719 118.359 235.719C117.984 235.719 117.711 235.828 117.539 236.047C117.367 236.266 117.258 236.547 117.211 236.891C117.18 237.234 117.164 237.602 117.164 237.992V238.109C117.164 238.609 117.195 239.078 117.258 239.516C117.32 239.953 117.445 240.305 117.633 240.57C117.82 240.836 118.109 240.969 118.5 240.969ZM118.453 248.68C119.266 248.68 119.922 248.531 120.422 248.234C120.938 247.938 121.195 247.492 121.195 246.898C121.195 246.195 119.883 245.844 117.258 245.844C116.867 245.953 116.57 246.086 116.367 246.242C116.164 246.398 116.062 246.656 116.062 247.016C116.062 247.484 116.305 247.875 116.789 248.188C117.289 248.516 117.844 248.68 118.453 248.68ZM129.422 250.109C128.641 250.109 127.93 250 127.289 249.781C126.648 249.578 126.141 249.281 125.766 248.891C125.391 248.5 125.203 248.047 125.203 247.531C125.203 247.188 125.383 246.82 125.742 246.43C126.117 246.039 126.578 245.758 127.125 245.586C126.719 245.414 126.352 245.141 126.023 244.766C125.695 244.375 125.531 243.953 125.531 243.5C125.531 243.109 125.703 242.773 126.047 242.492C126.406 242.211 126.828 241.938 127.312 241.672C127.016 241.5 126.727 241.242 126.445 240.898C126.164 240.555 125.938 240.164 125.766 239.727C125.594 239.273 125.508 238.828 125.508 238.391C125.508 237.531 125.703 236.812 126.094 236.234C126.484 235.656 127.008 235.219 127.664 234.922C128.336 234.625 129.078 234.477 129.891 234.477C130.469 234.477 131.133 234.578 131.883 234.781C132.258 234.891 132.594 234.969 132.891 235.016C133.203 235.062 133.469 235.086 133.688 235.086H134.977C135.008 235.086 135.055 235.156 135.117 235.297C135.195 235.438 135.266 235.586 135.328 235.742C135.391 235.883 135.422 235.992 135.422 236.07C135.422 236.289 135.375 236.398 135.281 236.398H133.898C133.836 236.414 133.805 236.438 133.805 236.469L133.992 237.102C134.039 237.305 134.078 237.508 134.109 237.711C134.141 237.914 134.156 238.102 134.156 238.273C134.156 238.93 133.969 239.555 133.594 240.148C133.234 240.742 132.742 241.234 132.117 241.625C131.492 242 130.773 242.188 129.961 242.188C129.648 242.188 129.359 242.18 129.094 242.164C128.828 242.133 128.586 242.102 128.367 242.07C128.164 242.133 128.016 242.242 127.922 242.398C127.844 242.555 127.805 242.68 127.805 242.773C127.805 242.914 127.938 243.023 128.203 243.102C128.422 243.164 128.75 243.219 129.188 243.266C129.625 243.312 130.062 243.344 130.5 243.359C130.938 243.375 131.273 243.383 131.508 243.383C133.992 243.492 135.25 244.312 135.281 245.844C135.281 246.422 135.109 246.969 134.766 247.484C134.438 248 133.984 248.453 133.406 248.844C132.844 249.234 132.211 249.539 131.508 249.758C130.82 249.992 130.125 250.109 129.422 250.109ZM129.867 240.969C130.461 240.969 130.82 240.75 130.945 240.312C131.07 239.875 131.133 239.344 131.133 238.719C131.133 237.719 131.039 236.969 130.852 236.469C130.664 235.969 130.289 235.719 129.727 235.719C129.352 235.719 129.078 235.828 128.906 236.047C128.734 236.266 128.625 236.547 128.578 236.891C128.547 237.234 128.531 237.602 128.531 237.992V238.109C128.531 238.609 128.562 239.078 128.625 239.516C128.688 239.953 128.812 240.305 129 240.57C129.188 240.836 129.477 240.969 129.867 240.969ZM129.82 248.68C130.633 248.68 131.289 248.531 131.789 248.234C132.305 247.938 132.562 247.492 132.562 246.898C132.562 246.195 131.25 245.844 128.625 245.844C128.234 245.953 127.938 246.086 127.734 246.242C127.531 246.398 127.43 246.656 127.43 247.016C127.43 247.484 127.672 247.875 128.156 248.188C128.656 248.516 129.211 248.68 129.82 248.68ZM141.656 245.164C140.703 245.164 139.82 244.922 139.008 244.438C138.211 243.953 137.57 243.305 137.086 242.492C136.617 241.68 136.383 240.789 136.383 239.82C136.383 238.82 136.594 237.922 137.016 237.125C137.453 236.328 138.055 235.695 138.82 235.227C139.586 234.758 140.469 234.523 141.469 234.523C142.453 234.523 143.289 234.758 143.977 235.227C144.68 235.68 145.211 236.25 145.57 236.938C145.945 237.609 146.133 238.289 146.133 238.977C146.133 239.336 146.055 239.57 145.898 239.68C145.758 239.789 145.469 239.844 145.031 239.844H139.734C139.641 239.844 139.594 239.898 139.594 240.008C139.594 240.57 139.695 241.102 139.898 241.602C140.117 242.102 140.43 242.508 140.836 242.82C141.258 243.133 141.766 243.289 142.359 243.289C142.891 243.289 143.383 243.211 143.836 243.055C144.148 242.961 144.391 242.875 144.562 242.797C144.734 242.719 144.891 242.633 145.031 242.539C145.188 242.43 145.367 242.297 145.57 242.141C145.711 242.203 145.781 242.352 145.781 242.586C145.781 242.789 145.75 242.945 145.688 243.055C145.594 243.305 145.344 243.594 144.938 243.922C144.547 244.25 144.062 244.539 143.484 244.789C142.922 245.039 142.312 245.164 141.656 245.164ZM139.758 238.555H142.734C142.953 238.555 143.062 238.406 143.062 238.109C143.062 237.516 142.898 236.984 142.57 236.516C142.258 236.047 141.852 235.812 141.352 235.812C140.898 235.812 140.539 235.977 140.273 236.305C140.023 236.617 139.844 236.969 139.734 237.359C139.641 237.75 139.594 238.07 139.594 238.32C139.594 238.477 139.648 238.555 139.758 238.555Z" fill="#212529"/>
<path d="M57.6 282.465C57.39 283.025 57.09 283.51 56.7 283.92C56.31 284.32 55.85 284.625 55.32 284.835C54.8 285.045 54.23 285.15 53.61 285.15C52.67 285.15 51.855 284.945 51.165 284.535C50.485 284.115 49.955 283.525 49.575 282.765C49.205 282.005 49.02 281.1 49.02 280.05C49.02 279 49.205 278.095 49.575 277.335C49.955 276.575 50.485 275.99 51.165 275.58C51.855 275.16 52.66 274.95 53.58 274.95C54.22 274.95 54.79 275.04 55.29 275.22C55.79 275.39 56.215 275.65 56.565 276C56.925 276.34 57.21 276.76 57.42 277.26L56.235 277.815C56.015 277.245 55.695 276.815 55.275 276.525C54.865 276.225 54.33 276.075 53.67 276.075C53 276.075 52.41 276.235 51.9 276.555C51.39 276.865 50.99 277.315 50.7 277.905C50.42 278.495 50.28 279.21 50.28 280.05C50.28 280.88 50.415 281.595 50.685 282.195C50.955 282.785 51.34 283.24 51.84 283.56C52.34 283.87 52.93 284.025 53.61 284.025C54.27 284.025 54.845 283.86 55.335 283.53C55.825 283.19 56.18 282.685 56.4 282.015L57.6 282.465ZM59.9032 285V275.1H66.8482V276.225H61.1032V279.42H65.5732V280.545H61.1032V283.875H67.0732V285H59.9032ZM73.2389 274.95C74.1789 274.95 74.9889 275.16 75.6689 275.58C76.3589 275.99 76.8889 276.575 77.2589 277.335C77.6389 278.095 77.8289 279 77.8289 280.05C77.8289 281.1 77.6389 282.005 77.2589 282.765C76.8889 283.525 76.3589 284.115 75.6689 284.535C74.9889 284.945 74.1789 285.15 73.2389 285.15C72.2989 285.15 71.4839 284.945 70.7939 284.535C70.1139 284.115 69.5839 283.525 69.2039 282.765C68.8339 282.005 68.6489 281.1 68.6489 280.05C68.6489 279 68.8339 278.095 69.2039 277.335C69.5839 276.575 70.1139 275.99 70.7939 275.58C71.4839 275.16 72.2989 274.95 73.2389 274.95ZM73.2389 276.075C72.5589 276.075 71.9689 276.235 71.4689 276.555C70.9689 276.865 70.5839 277.32 70.3139 277.92C70.0439 278.51 69.9089 279.22 69.9089 280.05C69.9089 280.88 70.0439 281.595 70.3139 282.195C70.5839 282.785 70.9689 283.24 71.4689 283.56C71.9689 283.87 72.5589 284.025 73.2389 284.025C73.9289 284.025 74.5189 283.87 75.0089 283.56C75.5089 283.24 75.8939 282.785 76.1639 282.195C76.4339 281.595 76.5689 280.88 76.5689 280.05C76.5689 279.22 76.4339 278.51 76.1639 277.92C75.8939 277.32 75.5089 276.865 75.0089 276.555C74.5189 276.235 73.9289 276.075 73.2389 276.075Z" fill="#212529" fill-opacity="0.75"/>
<defs>
<filter id="filter0_d_6_455" x="0" y="0" width="305" height="325" filterUnits="userSpaceOnUse" color-interpolation-filters="sRGB">
<feFlood flood-opacity="0" result="BackgroundImageFix"/>
<feColorMatrix in="SourceAlpha" type="matrix" values="0 0 0 0 0 0 0 0 0 0 0 0 0 0 0 0 0 0 127 0" result="hardAlpha"/>
<feMorphology radius="1" operator="dilate" in="SourceAlpha" result="effect1_dropShadow_6_455"/>
<feOffset dx="3" dy="4"/>
<feGaussianBlur stdDeviation="6"/>
<feComposite in2="hardAlpha" operator="out"/>
<feColorMatrix type="matrix" values="0 0 0 0 0 0 0 0 0 0 0 0 0 0 0 0 0 0 0.25 0"/>
<feBlend mode="normal" in2="BackgroundImageFix" result="effect1_dropShadow_6_455"/>
<feBlend mode="normal" in="SourceGraphic" in2="effect1_dropShadow_6_455" result="shape"/>
</filter>
</defs>
</svg>
