<svg width="278" height="325" viewBox="0 0 278 325" fill="none" xmlns="http://www.w3.org/2000/svg">
<g filter="url(#filter0_d_6_321)">
<rect x="10" y="9" width="252" height="299" rx="5" fill="white"/>
</g>
<circle cx="136" cy="116.5" r="87" stroke="black"/>
<mask id="mask0_6_321" style="mask-type:alpha" maskUnits="userSpaceOnUse" x="48" y="29" width="176" height="175">
<circle cx="136" cy="116.5" r="87.5" fill="#D9D9D9"/>
</mask>
<g mask="url(#mask0_6_321)">
<path d="M96.8501 126.697C99.6687 131.47 103.602 135.475 106.886 139.941C112.427 147.475 116.101 156.369 117.496 165.616C118.447 171.912 118.844 179.272 124.046 182.943C126.671 184.796 130.017 185.251 133.226 185.435C136.762 185.639 140.672 185.449 143.282 183.054C146.639 179.973 146.413 174.753 146.693 170.205C147.399 158.732 152.845 148.185 156.797 137.389C162.004 123.167 164.702 108.029 164.732 92.8831C164.744 86.7606 164.109 80.1056 159.955 75.6072C156.486 71.8502 151.231 70.361 146.186 69.5244C132.034 67.1771 112.296 69.3337 105.221 83.6774C99.4255 95.4296 89.8267 114.8 96.8501 126.697Z" fill="#FFE7FB"/>
<path d="M89.0847 214.001C92.5783 201.864 101.855 190.526 114.312 188.447C117.113 187.98 120.084 188.009 122.677 189.168C124.424 189.949 125.91 191.2 127.513 192.245C131.421 194.79 136.112 196.112 140.774 195.981C147.152 195.804 153.423 192.996 159.729 193.974C167.873 195.238 173.757 202.448 177.505 209.788C184.197 222.901 186.647 238.137 184.403 252.687C184.142 254.358 113.925 252.351 107.341 252.312C98.8197 252.262 91.2627 253.003 87.8645 244.012C84.6195 235.427 86.6572 222.438 89.0847 214.001Z" fill="#C3C62B"/>
<path d="M170.859 112.924C168.006 118.775 166.941 125.483 167.839 131.931C172.123 133.243 176.577 130.657 180.084 127.868C182.383 126.038 184.628 123.996 185.91 121.352C187.195 118.708 187.33 115.327 185.559 112.982C183.931 110.827 181.025 109.957 178.327 110.112C175.631 110.267 173.072 111.295 170.568 112.308" fill="#FFE7FB"/>
<path d="M136.991 131.752C137.33 131.832 136.161 136.182 131.248 136.1C126.335 136.019 122.732 137.983 122.814 146.582L120.66 145.27C120.66 145.27 116.122 126.831 136.991 131.752Z" fill="black"/>
<path d="M137.101 131.752C136.76 131.832 137.93 136.182 142.843 136.1C147.756 136.019 151.359 137.983 151.277 146.582L153.432 145.27C153.432 145.27 157.969 126.831 137.101 131.752Z" fill="black"/>
<path d="M103.068 95.7738C103.068 95.7738 102.875 107.975 105.35 121.849C107.578 134.341 111.96 148.182 120.584 155.681C124.58 159.151 129.476 161.263 135.486 161.272C140.264 161.272 144.388 160.352 147.945 158.713C148.749 158.348 149.52 157.942 150.259 157.501C150.505 157.363 150.752 157.212 150.988 157.051C151.48 156.752 151.952 156.43 152.412 156.088C152.605 155.949 152.787 155.81 152.98 155.669C153.248 155.456 153.516 155.253 153.773 155.028C154.201 154.674 154.619 154.309 155.026 153.924C155.476 153.505 155.926 153.067 156.355 152.606C156.698 152.242 157.04 151.856 157.373 151.471C157.405 151.439 157.437 151.396 157.469 151.363C157.769 151.01 158.058 150.645 158.337 150.282C158.38 150.239 158.422 150.185 158.455 150.142C164.282 142.558 167.218 132.187 168.632 122.523C168.643 122.492 168.643 122.48 168.643 122.48C170.71 108.35 169.553 95.7738 169.553 95.7738" stroke="black" stroke-miterlimit="10"/>
<path d="M124.108 158.08L124.098 158.22L122.941 170.411L121.977 180.598L106.85 190.081L101.032 193.734C100.4 194.13 99.7791 194.537 99.1684 194.966C88.8304 202.111 81.5669 212.931 78.8887 225.261L73.5 250.041" stroke="black" stroke-miterlimit="10"/>
<path d="M147.945 158.713L148.267 162.109L150.024 180.598L166.961 191.226L170.968 193.734C172.232 194.525 173.464 195.372 174.642 196.283C184.016 203.397 190.594 213.66 193.111 225.261L198.5 250.041" stroke="black" stroke-miterlimit="10"/>
<path d="M104.096 114.781C104.096 114.781 96.5619 104.182 92.147 108.671C87.7332 113.161 94.6871 136.432 107.67 134.448" stroke="black" stroke-miterlimit="10"/>
<path d="M169.571 114.479C169.571 114.479 176.746 103.633 181.308 107.972C185.871 112.31 179.702 135.802 166.659 134.255" stroke="black" stroke-miterlimit="10"/>
<path d="M96.943 118.094C96.943 118.094 103.014 118.454 105.346 123.411" stroke="black" stroke-miterlimit="10"/>
<path d="M99.9062 123.108C99.9062 123.108 100.212 121.044 104.088 121.5" stroke="black" stroke-miterlimit="10"/>
<path d="M176.971 117.553C176.971 117.553 170.915 118.116 168.751 123.148" stroke="black" stroke-miterlimit="10"/>
<path d="M174.178 122.663C174.178 122.663 173.804 120.61 169.944 121.197" stroke="black" stroke-miterlimit="10"/>
<path d="M168.751 116.404C168.751 116.404 164.984 114.766 164.984 110.835C164.984 106.905 166.949 99.8629 164.329 95.7684C161.71 91.6749 157.942 87.9082 157.942 87.9082C157.942 87.9082 135.179 82.3407 109.304 91.0193C109.304 91.0193 105.498 94.5075 106.519 101.276C108.976 117.553 104.342 116.466 104.342 116.466C104.342 116.466 96.9429 105.758 99.2462 95.1963C99.2462 95.1963 85.361 81.9582 95.9573 61.296C107.671 38.4504 148.059 40.1463 161.817 55.2838C172.862 67.4378 168.751 75.4618 168.751 75.4618C168.751 75.4618 184.475 89.5463 168.751 116.404Z" fill="black"/>
<path d="M115.616 85.1227C113.547 82.6126 111.965 79.7137 110.732 76.6851C109.5 73.649 108.751 70.4094 108.485 67.1301C108.305 65.49 108.425 63.8402 108.477 62.1957C108.757 60.5727 108.859 58.9164 109.409 57.3566C109.658 56.5735 109.814 55.7636 110.139 55.0105L111.096 52.75C111.391 51.9862 111.847 51.3016 112.259 50.5999C112.673 49.8982 113.098 49.2061 113.528 48.5205C112.159 51.4623 110.798 54.3955 110.208 57.5548C109.789 59.0986 109.701 60.7012 109.488 62.276C109.472 63.8691 109.359 65.461 109.552 67.0476C109.785 70.223 110.477 73.363 111.5 76.399C112.029 77.9117 112.618 79.4083 113.322 80.8567C113.973 82.333 114.767 83.7396 115.616 85.1227Z" fill="white"/>
<path d="M122.982 44.8914C121.863 46.7244 121.157 48.7363 120.549 50.7492C119.972 52.7772 119.584 54.8523 119.335 56.9446L119.161 58.5162L119.068 60.0974C118.962 61.1516 119.017 62.2111 118.97 63.2717C118.962 64.3323 119.019 65.394 119.022 66.461C119.061 67.5269 119.155 68.5907 119.17 69.6696C118.914 68.6272 118.717 67.5709 118.5 66.5135C118.37 65.4465 118.2 64.3784 118.134 63.3006C117.998 61.1473 118.005 58.9726 118.271 56.8171C118.548 54.667 118.997 52.5276 119.757 50.4889C120.516 48.462 121.524 46.4844 122.982 44.8914Z" fill="white"/>
<path d="M121.626 57.281C121.495 56.1208 121.541 54.9584 121.664 53.8057C121.781 52.6519 122.013 51.5099 122.334 50.3882C122.672 49.2719 123.081 48.1642 123.693 47.1497C124.289 46.1394 125.051 45.1742 126.052 44.5614C125.36 45.5009 124.875 46.4983 124.441 47.5225C124.014 48.5477 123.67 49.6115 123.362 50.6882C122.714 52.8383 122.248 55.0441 121.626 57.281Z" fill="white"/>
<path d="M135.558 57.2809C135.473 59.6067 135.321 61.9057 135.356 64.2037C135.394 66.4995 135.508 68.7867 135.811 71.0504C136.115 73.3129 136.624 75.5348 137.285 77.7192C137.664 78.7927 138.024 79.8822 138.542 80.9042C138.944 81.9916 139.604 82.9333 140.12 83.9842C138.615 82.2144 137.394 80.1811 136.509 77.9999C135.641 75.8144 135.085 73.5144 134.748 71.1918C134.466 68.8617 134.377 66.5123 134.536 64.1822C134.606 63.0166 134.736 61.8564 134.896 60.7037C135.084 59.5531 135.308 58.4133 135.558 57.2809Z" fill="white"/>
<path d="M130.846 86.5541C130.846 86.5541 121.75 89.4638 124.82 95.7684C124.82 95.7684 117.956 85.1593 130.846 86.5541Z" fill="black"/>
<path d="M112.251 104.755C112.802 104.048 113.415 103.558 114.037 103.083L115.903 103.158C117.145 103.231 118.384 103.372 119.62 103.583C120.857 103.79 122.086 104.106 123.302 104.493C123.906 104.702 124.511 104.913 125.103 105.183C125.508 105.866 125.845 106.618 126.054 107.443C125.203 107.737 124.52 107.877 123.815 108.129C123.328 107.903 122.811 107.724 122.295 107.545C121.249 107.214 120.175 106.933 119.069 106.75C117.966 106.562 116.845 106.433 115.717 106.367C115.152 106.343 114.588 106.299 114.025 106.329C113.46 105.846 112.885 105.385 112.251 104.755Z" fill="black"/>
<path d="M120.661 113.998C120.661 115.727 119.781 117.129 118.695 117.129C117.609 117.129 116.73 115.727 116.73 113.998C116.73 112.268 117.609 110.865 118.695 110.865C119.781 110.865 120.661 112.268 120.661 113.998Z" fill="black"/>
<path d="M159.118 103.957C158.495 104.59 157.952 105.073 157.425 105.576C156.879 105.569 156.333 105.641 155.788 105.699C154.698 105.832 153.618 106.055 152.567 106.356C151.514 106.649 150.489 107.03 149.515 107.503C149.02 107.726 148.549 107.991 148.084 108.264C147.359 108.103 146.657 108.048 145.783 107.846C145.899 107.006 146.134 106.227 146.444 105.5C146.995 105.176 147.554 104.866 148.133 104.602C149.279 104.046 150.473 103.604 151.69 103.264C152.905 102.917 154.142 102.662 155.392 102.51C156.017 102.427 156.646 102.394 157.277 102.333C157.928 102.784 158.565 103.253 159.118 103.957Z" fill="black"/>
<path d="M151.011 113.998C151.011 115.727 151.891 117.129 152.976 117.129C154.062 117.129 154.942 115.727 154.942 113.998C154.942 112.268 154.062 110.865 152.976 110.865C151.891 110.865 151.011 112.268 151.011 113.998Z" fill="black"/>
<path d="M133.327 112.59C133.45 113.081 133.696 120.51 130.135 128.802C130.135 128.802 133.888 131.307 138.433 128.524" stroke="black" stroke-miterlimit="10"/>
<path d="M128.732 138.714C128.732 138.714 136.999 140.494 145.784 139.192" stroke="black" stroke-miterlimit="10"/>
<path d="M133.429 142.472C133.429 142.472 138.099 143.25 140.552 141.94" stroke="black" stroke-miterlimit="10"/>
<path d="M168.632 122.523C167.218 132.188 164.283 142.558 158.455 150.143C155.659 153.764 152.209 156.753 147.946 158.713C144.389 160.352 140.264 161.273 135.486 161.273C129.476 161.263 124.58 159.151 120.584 155.681C111.96 148.182 107.579 134.341 105.35 121.85C105.35 121.85 111.061 135.487 115.121 140.147C119.17 144.818 123.177 148.417 137.447 148.664C151.717 148.417 155.734 144.818 159.783 140.147C163.704 135.637 168.343 123.284 168.632 122.523Z" fill="black"/>
<path d="M121.973 180.599L138.433 198.123L150.027 180.599" stroke="black" stroke-miterlimit="10"/>
<path d="M115.739 184.51L123.387 200.251L133.889 193.284" stroke="black" stroke-miterlimit="10"/>
<path d="M142.8 191.522L151.719 200.251L159.345 186.443" stroke="black" stroke-miterlimit="10"/>
<path d="M138.433 198.123H142.8C142.8 198.123 143.694 206.147 139.272 207.621L138.433 250.036" stroke="black" stroke-miterlimit="10"/>
<path d="M110.438 250.042H101.922L99.1683 194.966C99.7789 194.537 100.4 194.13 101.032 193.734L106.85 190.081L110.438 250.042Z" fill="black"/>
<path d="M174.642 196.283L171.963 250.041H163.447L166.96 191.227L170.967 193.734C172.231 194.525 173.463 195.372 174.642 196.283Z" fill="black"/>
<path d="M148.267 162.109C139.396 165.076 127.666 168.89 122.941 170.411L124.098 158.22C127.366 160.159 131.137 161.262 135.486 161.272C140.264 161.272 144.389 160.352 147.945 158.713L148.267 162.109Z" fill="black"/>
</g>
<path d="M49.9531 245.164C49.1875 245.164 48.4844 245.094 47.8438 244.953C47.2188 244.797 46.7188 244.625 46.3438 244.438C45.9531 244.25 45.5703 243.969 45.1953 243.594C45.0078 243.406 44.8359 243.227 44.6797 243.055C44.5234 242.883 44.3516 242.672 44.1641 242.422C43.9922 242.156 43.7656 241.812 43.4844 241.391C43.2031 240.953 42.8359 240.375 42.3828 239.656C41.7734 238.734 41.3672 238.234 41.1641 238.156C41.1328 238.141 41.0469 238.133 40.9062 238.133C40.7656 238.133 40.6953 238.258 40.6953 238.508V241.695C40.6953 242.523 40.75 243.164 40.8594 243.617C40.8906 243.742 41.0234 243.852 41.2578 243.945C41.4922 244.039 41.75 244.109 42.0312 244.156C42.3125 244.203 42.5312 244.227 42.6875 244.227C42.75 244.227 42.7812 244.375 42.7812 244.672C42.7812 244.828 42.7656 244.969 42.7344 245.094C41.7969 245.047 41.0312 245.008 40.4375 244.977C39.8438 244.945 39.4141 244.938 39.1484 244.953L35.7266 245.094C35.6641 245.031 35.6328 244.898 35.6328 244.695C35.6328 244.383 35.6641 244.227 35.7266 244.227C35.8516 244.227 36.0312 244.203 36.2656 244.156C36.5 244.109 36.7188 244.047 36.9219 243.969C37.125 243.875 37.2422 243.789 37.2734 243.711C37.3672 243.352 37.4141 242.664 37.4141 241.648V232.789C37.4141 231.914 37.3672 231.305 37.2734 230.961C37.2422 230.867 37.1172 230.773 36.8984 230.68C36.6953 230.57 36.4766 230.484 36.2422 230.422C36.0078 230.344 35.8281 230.305 35.7031 230.305C35.6406 230.305 35.6094 230.164 35.6094 229.883C35.6094 229.633 35.6328 229.484 35.6797 229.438C36.3984 229.469 37.0391 229.5 37.6016 229.531C38.1797 229.547 38.6875 229.555 39.125 229.555C39.875 229.539 40.4609 229.531 40.8828 229.531C41.3047 229.531 41.625 229.531 41.8438 229.531C42.0625 229.531 42.25 229.531 42.4062 229.531C43.0312 229.531 43.6562 229.609 44.2812 229.766C44.9219 229.922 45.5078 230.164 46.0391 230.492C46.5703 230.805 46.9922 231.211 47.3047 231.711C47.6328 232.195 47.7969 232.781 47.7969 233.469C47.7969 234.156 47.6562 234.797 47.375 235.391C47.0938 235.984 46.7266 236.484 46.2734 236.891C45.8359 237.297 45.3828 237.578 44.9141 237.734C44.7891 237.781 44.7656 237.867 44.8438 237.992C45.1875 238.57 45.4531 239.008 45.6406 239.305C45.8281 239.602 45.9844 239.844 46.1094 240.031C46.25 240.203 46.4141 240.422 46.6016 240.688C46.7891 240.938 47.0547 241.32 47.3984 241.836C47.6641 242.211 47.9766 242.586 48.3359 242.961C48.7109 243.32 49.1094 243.625 49.5312 243.875C49.9688 244.109 50.3828 244.227 50.7734 244.227C50.8359 244.289 50.8672 244.43 50.8672 244.648C50.8672 244.836 50.8359 244.992 50.7734 245.117C50.6641 245.133 50.5391 245.141 50.3984 245.141C50.2734 245.156 50.125 245.164 49.9531 245.164ZM41.6797 236.844H42.3125C42.9219 236.844 43.3906 236.578 43.7188 236.047C44.0625 235.516 44.2344 234.812 44.2344 233.938C44.2344 231.859 43.5078 230.82 42.0547 230.82C41.5078 230.82 41.1484 230.883 40.9766 231.008C40.7891 231.148 40.6953 231.914 40.6953 233.305V235.836C40.6953 236.273 40.7812 236.555 40.9531 236.68C41.1406 236.789 41.3828 236.844 41.6797 236.844ZM51.7344 245.094C51.6719 245.031 51.6406 244.883 51.6406 244.648C51.6406 244.414 51.6719 244.297 51.7344 244.297C51.8594 244.297 52.0234 244.266 52.2266 244.203C52.4297 244.141 52.625 244.062 52.8125 243.969C53 243.875 53.1016 243.789 53.1172 243.711C53.2266 243.273 53.2812 242.68 53.2812 241.93V238.508C53.2812 237.633 53.1406 237.047 52.8594 236.75C52.7344 236.594 52.5625 236.484 52.3438 236.422C52.1406 236.359 51.9609 236.32 51.8047 236.305C51.6484 236.273 51.5703 236.242 51.5703 236.211C51.5703 235.758 51.6094 235.531 51.6875 235.531C51.8281 235.531 52.0859 235.5 52.4609 235.438C52.8359 235.375 53.25 235.297 53.7031 235.203C54.1719 235.109 54.6094 235.016 55.0156 234.922C55.4375 234.828 55.7578 234.75 55.9766 234.688L56.2344 234.617C56.3125 234.617 56.3906 234.672 56.4688 234.781C56.5469 234.875 56.5859 234.953 56.5859 235.016C56.5078 235.703 56.4453 236.242 56.3984 236.633C56.3516 237.023 56.3281 237.266 56.3281 237.359V241.578C56.3281 242.469 56.3906 243.18 56.5156 243.711C56.5469 243.773 56.6484 243.852 56.8203 243.945C57.0078 244.039 57.2031 244.125 57.4062 244.203C57.6094 244.266 57.75 244.297 57.8281 244.297C57.875 244.297 57.8984 244.414 57.8984 244.648C57.9141 244.883 57.9062 245.031 57.875 245.094C57.75 245.078 57.4844 245.055 57.0781 245.023C56.6875 245.008 56.2734 244.984 55.8359 244.953C55.3984 244.922 55.0547 244.906 54.8047 244.906C54.5547 244.906 54.2109 244.922 53.7734 244.953C53.3359 244.984 52.9219 245.008 52.5312 245.023C52.1406 245.055 51.875 245.078 51.7344 245.094ZM54.6875 232.297C54.2031 232.297 53.7891 232.133 53.4453 231.805C53.1172 231.461 52.9531 231.047 52.9531 230.562C52.9531 230.078 53.1172 229.672 53.4453 229.344C53.7891 229 54.2031 228.828 54.6875 228.828C55.1719 228.828 55.5781 229 55.9062 229.344C56.25 229.672 56.4219 230.078 56.4219 230.562C56.4219 231.047 56.25 231.461 55.9062 231.805C55.5781 232.133 55.1719 232.297 54.6875 232.297ZM64.5547 245.164C63.5547 245.164 62.6562 244.922 61.8594 244.438C61.0625 243.953 60.4297 243.297 59.9609 242.469C59.4922 241.641 59.2578 240.719 59.2578 239.703C59.2578 238.734 59.5078 237.859 60.0078 237.078C60.5078 236.297 61.1797 235.68 62.0234 235.227C62.8828 234.758 63.8281 234.523 64.8594 234.523C65.6562 234.523 66.3906 234.664 67.0625 234.945C67.7344 235.211 68.2188 235.531 68.5156 235.906C68.5156 237.344 68.0938 238.062 67.25 238.062C66.6406 238.062 66.1797 237.672 65.8672 236.891C65.7266 236.531 65.5469 236.266 65.3281 236.094C65.125 235.906 64.8359 235.812 64.4609 235.812C63.2109 235.812 62.5859 236.984 62.5859 239.328C62.5859 241.969 63.4688 243.289 65.2344 243.289C65.7656 243.289 66.2578 243.211 66.7109 243.055C67.0234 242.961 67.2656 242.875 67.4375 242.797C67.6094 242.719 67.7656 242.633 67.9062 242.539C68.0625 242.43 68.2422 242.297 68.4453 242.141C68.5859 242.203 68.6562 242.352 68.6562 242.586C68.6562 242.789 68.625 242.945 68.5625 243.055C68.4688 243.305 68.2266 243.602 67.8359 243.945C67.4453 244.273 66.9609 244.562 66.3828 244.812C65.8203 245.047 65.2109 245.164 64.5547 245.164ZM69.9453 245.094C69.8828 245.031 69.8516 244.867 69.8516 244.602C69.8516 244.352 69.8828 244.227 69.9453 244.227C70.0703 244.227 70.25 244.195 70.4844 244.133C70.7188 244.055 70.9375 243.969 71.1406 243.875C71.3438 243.781 71.4531 243.703 71.4688 243.641C71.5781 243.203 71.6328 242.609 71.6328 241.859V232.555C71.6328 232.195 71.6172 231.875 71.5859 231.594C71.5703 231.312 71.5469 231.07 71.5156 230.867C71.4531 230.617 71.0469 230.492 70.2969 230.492H70.0859C69.9922 230.492 69.9453 230.336 69.9453 230.023C69.9453 229.758 69.9922 229.625 70.0859 229.625C70.9922 229.547 71.8438 229.414 72.6406 229.227C73.4531 229.039 74.0312 228.891 74.375 228.781L74.6094 228.711H74.6562C74.7188 228.711 74.7812 228.758 74.8438 228.852C74.9062 228.945 74.9453 229.031 74.9609 229.109C74.7734 229.812 74.6797 230.602 74.6797 231.477V235.836C74.6797 235.945 74.7109 236 74.7734 236C74.7891 236 74.8281 235.969 74.8906 235.906C75.2344 235.516 75.7188 235.195 76.3438 234.945C76.9688 234.68 77.6172 234.547 78.2891 234.547C79.1953 234.547 79.9297 234.93 80.4922 235.695C81.0703 236.461 81.3594 237.625 81.3594 239.188V241.508C81.3594 242.539 81.4141 243.25 81.5234 243.641C81.5547 243.703 81.6719 243.781 81.875 243.875C82.0781 243.969 82.2891 244.055 82.5078 244.133C82.7422 244.195 82.9062 244.227 83 244.227C83.0312 244.227 83.0547 244.289 83.0703 244.414C83.0859 244.539 83.0938 244.672 83.0938 244.812C83.0938 244.953 83.0781 245.047 83.0469 245.094C82.9531 245.094 82.7734 245.078 82.5078 245.047C82.2422 245.031 81.9297 245.016 81.5703 245C81.2266 244.969 80.8984 244.945 80.5859 244.93C80.2734 244.914 80.0234 244.906 79.8359 244.906C79.5859 244.906 79.2344 244.922 78.7812 244.953C78.3438 244.984 77.9219 245.008 77.5156 245.023C77.1094 245.055 76.8438 245.078 76.7188 245.094C76.6562 245.031 76.625 244.867 76.625 244.602C76.625 244.352 76.6562 244.227 76.7188 244.227C76.8438 244.227 77.0078 244.195 77.2109 244.133C77.4297 244.055 77.6328 243.969 77.8203 243.875C78.0234 243.781 78.1328 243.703 78.1484 243.641C78.2578 243.203 78.3125 242.609 78.3125 241.859V239.75C78.3125 238.594 78.1562 237.773 77.8438 237.289C77.5312 236.789 77.0234 236.539 76.3203 236.539C75.2266 236.539 74.6797 236.883 74.6797 237.57V241.508C74.6797 242.539 74.7344 243.25 74.8438 243.641C74.875 243.703 74.9844 243.781 75.1719 243.875C75.3594 243.969 75.5625 244.055 75.7812 244.133C76 244.195 76.1484 244.227 76.2266 244.227C76.2578 244.227 76.2812 244.289 76.2969 244.414C76.3125 244.539 76.3203 244.672 76.3203 244.812C76.3203 244.953 76.3047 245.047 76.2734 245.094C76.1484 245.078 75.8828 245.055 75.4766 245.023C75.0703 245.008 74.6406 244.984 74.1875 244.953C73.75 244.922 73.4062 244.906 73.1562 244.906C72.9688 244.906 72.7109 244.914 72.3828 244.93C72.0703 244.945 71.7422 244.969 71.3984 245C71.0547 245.016 70.75 245.031 70.4844 245.047C70.2188 245.078 70.0391 245.094 69.9453 245.094ZM86.5625 245.164C85.7031 245.164 85.0156 244.93 84.5 244.461C84 243.977 83.75 243.375 83.75 242.656C83.75 242.047 83.9375 241.516 84.3125 241.062C84.7031 240.609 85.1875 240.25 85.7656 239.984C85.9844 239.891 86.1875 239.812 86.375 239.75C86.5625 239.672 86.7344 239.602 86.8906 239.539C87.4844 239.352 87.9609 239.219 88.3203 239.141C88.6797 239.047 88.9453 238.969 89.1172 238.906C89.2578 238.859 89.3281 238.742 89.3281 238.555V237.711C89.3281 236.43 88.9375 235.789 88.1562 235.789C87.25 235.789 86.7969 236.312 86.7969 237.359C86.7969 237.703 86.6562 237.961 86.375 238.133C86.0938 238.289 85.7812 238.367 85.4375 238.367C84.7188 238.367 84.2266 238.133 83.9609 237.664C83.9609 237.258 84.1016 236.867 84.3828 236.492C84.6797 236.117 85.0625 235.781 85.5312 235.484C86.0156 235.172 86.5547 234.93 87.1484 234.758C87.7578 234.57 88.3672 234.477 88.9766 234.477C90.0703 234.477 90.9062 234.781 91.4844 235.391C92.0781 235.984 92.375 237.07 92.375 238.648V242.445C92.375 242.977 92.5625 243.242 92.9375 243.242C93.2188 243.242 93.4844 243.141 93.7344 242.938C93.8438 243 93.8984 243.117 93.8984 243.289C93.8984 243.695 93.8438 243.984 93.7344 244.156C93.5156 244.359 93.1562 244.578 92.6562 244.812C92.1719 245.031 91.7109 245.141 91.2734 245.141C90.8984 245.141 90.5391 245.031 90.1953 244.812C89.8516 244.578 89.625 244.312 89.5156 244.016C89.5 244.016 89.4141 244.07 89.2578 244.18C89.1016 244.289 88.9844 244.375 88.9062 244.438C88.5938 244.641 88.2344 244.812 87.8281 244.953C87.4219 245.094 87 245.164 86.5625 245.164ZM88.0391 243.477C88.4453 243.477 88.7578 243.383 88.9766 243.195C89.2109 242.992 89.3281 242.75 89.3281 242.469V240.102L88.1094 240.523C87.7812 240.633 87.4766 240.797 87.1953 241.016C86.9297 241.234 86.7969 241.523 86.7969 241.883C86.7969 242.445 86.9141 242.852 87.1484 243.102C87.3984 243.352 87.6953 243.477 88.0391 243.477ZM95.2109 245.094C95.1484 245.031 95.1172 244.867 95.1172 244.602C95.1172 244.352 95.1484 244.227 95.2109 244.227C95.3359 244.227 95.5156 244.195 95.75 244.133C95.9844 244.055 96.2031 243.969 96.4062 243.875C96.6094 243.781 96.7188 243.703 96.7344 243.641C96.8438 243.203 96.8984 242.609 96.8984 241.859V238.648C96.8984 237.773 96.7578 237.188 96.4766 236.891C96.3516 236.734 96.1797 236.625 95.9609 236.562C95.7578 236.5 95.5781 236.461 95.4219 236.445C95.2656 236.414 95.1875 236.383 95.1875 236.352C95.1875 235.805 95.2266 235.531 95.3047 235.531C95.7109 235.531 96.2734 235.445 96.9922 235.273C97.7266 235.086 98.5 234.906 99.3125 234.734L99.8516 234.617C99.9297 234.617 100.008 234.672 100.086 234.781C100.164 234.875 100.203 234.953 100.203 235.016C100.188 235.109 100.164 235.297 100.133 235.578C100.117 235.859 100.102 236.016 100.086 236.047C100.867 235.031 101.75 234.523 102.734 234.523C103.438 234.523 104.109 234.812 104.75 235.391C104.75 236.203 104.648 236.805 104.445 237.195C104.258 237.586 103.906 237.781 103.391 237.781C103.078 237.781 102.719 237.602 102.312 237.242C101.906 236.883 101.547 236.703 101.234 236.703C100.922 236.703 100.672 236.828 100.484 237.078C100.297 237.312 100.156 237.617 100.062 237.992C99.9844 238.367 99.9453 238.758 99.9453 239.164V241.531C99.9453 242.547 100 243.25 100.109 243.641C100.141 243.703 100.25 243.781 100.438 243.875C100.625 243.969 100.828 244.055 101.047 244.133C101.266 244.195 101.414 244.227 101.492 244.227C101.523 244.227 101.547 244.289 101.562 244.414C101.578 244.539 101.586 244.672 101.586 244.812C101.586 244.953 101.57 245.047 101.539 245.094C101.414 245.078 101.148 245.055 100.742 245.023C100.336 245.008 99.9062 244.984 99.4531 244.953C99.0156 244.922 98.6719 244.906 98.4219 244.906C98.2344 244.906 97.9766 244.914 97.6484 244.93C97.3359 244.945 97.0078 244.969 96.6641 245C96.3203 245.016 96.0156 245.031 95.75 245.047C95.4844 245.078 95.3047 245.094 95.2109 245.094ZM110.68 245.141C109.836 245.141 109.039 244.93 108.289 244.508C107.555 244.086 106.953 243.492 106.484 242.727C106.031 241.961 105.805 241.062 105.805 240.031C105.805 238.984 106.047 238.047 106.531 237.219C107.031 236.391 107.703 235.734 108.547 235.25C109.406 234.766 110.367 234.523 111.43 234.523C112.086 234.523 112.633 234.594 113.07 234.734C113.117 234.734 113.141 234.625 113.141 234.406V232.555C113.141 231.898 113.094 231.336 113 230.867C112.938 230.617 112.531 230.492 111.781 230.492H111.57C111.477 230.492 111.43 230.336 111.43 230.023C111.43 229.758 111.477 229.625 111.57 229.625C112.477 229.547 113.328 229.414 114.125 229.227C114.938 229.039 115.516 228.891 115.859 228.781L116.094 228.711H116.141C116.203 228.711 116.266 228.758 116.328 228.852C116.391 228.945 116.43 229.031 116.445 229.109C116.273 229.844 116.188 230.633 116.188 231.477V241.555C116.188 241.898 116.203 242.273 116.234 242.68C116.266 243.07 116.336 243.32 116.445 243.43C116.57 243.523 116.711 243.578 116.867 243.594C117.023 243.594 117.227 243.609 117.477 243.641L117.711 243.664C117.758 243.68 117.781 243.773 117.781 243.945C117.781 244.336 117.734 244.531 117.641 244.531C117.25 244.547 116.797 244.594 116.281 244.672C115.781 244.75 115.289 244.828 114.805 244.906C114.32 244.984 113.93 245.047 113.633 245.094L113.281 245.141C113.188 245.156 113.141 245.023 113.141 244.742V244.25C113.141 244.125 113.109 244.094 113.047 244.156C112.391 244.812 111.602 245.141 110.68 245.141ZM111.289 243.711C111.82 243.711 112.258 243.562 112.602 243.266C112.961 242.953 113.141 242.578 113.141 242.141V237.875C113.141 237.688 113.125 237.508 113.094 237.336C113.062 237.164 112.992 236.945 112.883 236.68C112.773 236.414 112.578 236.203 112.297 236.047C112.031 235.875 111.695 235.789 111.289 235.789C110.555 235.789 110.016 236.086 109.672 236.68C109.344 237.258 109.18 238.188 109.18 239.469C109.18 242.297 109.883 243.711 111.289 243.711ZM131.305 245.211C130.273 245.211 129.305 245.008 128.398 244.602C127.508 244.195 126.719 243.633 126.031 242.914C125.344 242.195 124.805 241.367 124.414 240.43C124.039 239.492 123.852 238.5 123.852 237.453C123.852 236.344 124.047 235.305 124.438 234.336C124.844 233.367 125.398 232.508 126.102 231.758C126.805 231.008 127.617 230.422 128.539 230C129.477 229.578 130.484 229.367 131.562 229.367C132.422 229.367 133.297 229.43 134.188 229.555C135.078 229.664 135.992 229.828 136.93 230.047C136.977 230.047 137.023 230.227 137.07 230.586C137.133 230.93 137.195 231.344 137.258 231.828C137.32 232.297 137.367 232.734 137.398 233.141C137.445 233.531 137.469 233.781 137.469 233.891C137.469 234.016 137.328 234.078 137.047 234.078C136.75 234.078 136.508 234.039 136.32 233.961C136.242 233.664 136.117 233.359 135.945 233.047C135.773 232.734 135.516 232.383 135.172 231.992C134.828 231.602 134.352 231.289 133.742 231.055C133.133 230.805 132.445 230.68 131.68 230.68C128.867 230.68 127.461 232.758 127.461 236.914C127.461 238.055 127.617 239.141 127.93 240.172C128.133 240.844 128.438 241.461 128.844 242.023C129.266 242.586 129.773 243.039 130.367 243.383C130.977 243.727 131.664 243.898 132.43 243.898C133.133 243.898 133.633 243.773 133.93 243.523C134.102 243.383 134.188 243.148 134.188 242.82V241.18C134.188 240.352 134.133 239.75 134.023 239.375C133.914 238.953 133.398 238.742 132.477 238.742C132.445 238.742 132.414 238.68 132.383 238.555C132.367 238.43 132.367 238.297 132.383 238.156C132.398 238 132.422 237.906 132.453 237.875C133.078 237.906 133.703 237.938 134.328 237.969C134.953 238 135.492 238.016 135.945 238.016C136.18 238.016 137.234 237.969 139.109 237.875C139.156 238.016 139.18 238.172 139.18 238.344C139.18 238.625 139.148 238.766 139.086 238.766C138.727 238.766 138.312 238.883 137.844 239.117C137.594 239.227 137.469 239.844 137.469 240.969V242.328C137.469 242.609 137.492 242.82 137.539 242.961C137.586 243.102 137.609 243.188 137.609 243.219C137.609 243.484 137.445 243.703 137.117 243.875C136.539 244.172 136.094 244.383 135.781 244.508C135.453 244.648 134.875 244.805 134.047 244.977C133.234 245.133 132.32 245.211 131.305 245.211ZM148.836 245.117C148.742 245.117 148.695 244.977 148.695 244.695V243.828C148.695 243.703 148.664 243.672 148.602 243.734C148.273 244.078 147.789 244.391 147.148 244.672C146.523 244.953 145.844 245.094 145.109 245.094C144.5 245.094 143.961 244.906 143.492 244.531C143.039 244.156 142.688 243.656 142.438 243.031C142.188 242.391 142.062 241.688 142.062 240.922V238.648C142.062 237.773 141.922 237.188 141.641 236.891C141.516 236.734 141.344 236.625 141.125 236.562C140.922 236.5 140.742 236.461 140.586 236.445C140.43 236.414 140.352 236.383 140.352 236.352C140.352 235.805 140.391 235.531 140.469 235.531C140.609 235.531 140.867 235.5 141.242 235.438C141.633 235.375 142.055 235.305 142.508 235.227C142.961 235.133 143.391 235.039 143.797 234.945C144.219 234.836 144.539 234.75 144.758 234.688C144.805 234.672 144.844 234.656 144.875 234.641C144.922 234.625 144.969 234.617 145.016 234.617C145.094 234.617 145.172 234.672 145.25 234.781C145.328 234.875 145.367 234.953 145.367 235.016C145.289 235.703 145.227 236.242 145.18 236.633C145.133 237.023 145.109 237.266 145.109 237.359V239.867C145.109 241.086 145.266 241.945 145.578 242.445C145.891 242.93 146.414 243.172 147.148 243.172C147.68 243.172 148.078 243.055 148.344 242.82C148.609 242.57 148.742 242.297 148.742 242V238.648C148.742 237.773 148.602 237.188 148.32 236.891C148.195 236.734 148.023 236.625 147.805 236.562C147.602 236.5 147.422 236.461 147.266 236.445C147.109 236.414 147.031 236.383 147.031 236.352C147.031 235.805 147.07 235.531 147.148 235.531C147.289 235.531 147.547 235.5 147.922 235.438C148.312 235.375 148.734 235.305 149.188 235.227C149.641 235.133 150.07 235.039 150.477 234.945C150.898 234.836 151.219 234.75 151.438 234.688L151.695 234.617C151.773 234.617 151.852 234.672 151.93 234.781C152.008 234.875 152.047 234.953 152.047 235.016C151.969 235.703 151.906 236.242 151.859 236.633C151.812 237.023 151.789 237.258 151.789 237.336V241.93C151.789 242.758 151.867 243.25 152.023 243.406C152.102 243.484 152.227 243.547 152.398 243.594C152.57 243.625 152.742 243.641 152.914 243.641H153.148C153.211 243.656 153.242 243.719 153.242 243.828C153.242 244.281 153.195 244.508 153.102 244.508C152.133 244.602 151.32 244.695 150.664 244.789C150.023 244.883 149.523 244.969 149.164 245.047L148.836 245.117ZM159.453 245.164C158.5 245.164 157.617 244.922 156.805 244.438C156.008 243.953 155.367 243.305 154.883 242.492C154.414 241.68 154.18 240.789 154.18 239.82C154.18 238.82 154.391 237.922 154.812 237.125C155.25 236.328 155.852 235.695 156.617 235.227C157.383 234.758 158.266 234.523 159.266 234.523C160.25 234.523 161.086 234.758 161.773 235.227C162.477 235.68 163.008 236.25 163.367 236.938C163.742 237.609 163.93 238.289 163.93 238.977C163.93 239.336 163.852 239.57 163.695 239.68C163.555 239.789 163.266 239.844 162.828 239.844H157.531C157.438 239.844 157.391 239.898 157.391 240.008C157.391 240.57 157.492 241.102 157.695 241.602C157.914 242.102 158.227 242.508 158.633 242.82C159.055 243.133 159.562 243.289 160.156 243.289C160.688 243.289 161.18 243.211 161.633 243.055C161.945 242.961 162.188 242.875 162.359 242.797C162.531 242.719 162.688 242.633 162.828 242.539C162.984 242.43 163.164 242.297 163.367 242.141C163.508 242.203 163.578 242.352 163.578 242.586C163.578 242.789 163.547 242.945 163.484 243.055C163.391 243.305 163.141 243.594 162.734 243.922C162.344 244.25 161.859 244.539 161.281 244.789C160.719 245.039 160.109 245.164 159.453 245.164ZM157.555 238.555H160.531C160.75 238.555 160.859 238.406 160.859 238.109C160.859 237.516 160.695 236.984 160.367 236.516C160.055 236.047 159.648 235.812 159.148 235.812C158.695 235.812 158.336 235.977 158.07 236.305C157.82 236.617 157.641 236.969 157.531 237.359C157.438 237.75 157.391 238.07 157.391 238.32C157.391 238.477 157.445 238.555 157.555 238.555ZM165.359 245.094C165.297 245.031 165.266 244.867 165.266 244.602C165.266 244.352 165.297 244.227 165.359 244.227C165.484 244.227 165.664 244.195 165.898 244.133C166.133 244.055 166.352 243.969 166.555 243.875C166.758 243.781 166.867 243.703 166.883 243.641C166.992 243.203 167.047 242.609 167.047 241.859V238.648C167.047 237.773 166.906 237.188 166.625 236.891C166.5 236.734 166.328 236.625 166.109 236.562C165.906 236.5 165.727 236.461 165.57 236.445C165.414 236.414 165.336 236.383 165.336 236.352C165.336 235.805 165.375 235.531 165.453 235.531C165.859 235.531 166.422 235.445 167.141 235.273C167.875 235.086 168.648 234.906 169.461 234.734L170 234.617C170.078 234.617 170.156 234.672 170.234 234.781C170.312 234.875 170.352 234.953 170.352 235.016C170.336 235.109 170.312 235.297 170.281 235.578C170.266 235.859 170.25 236.016 170.234 236.047C171.016 235.031 171.898 234.523 172.883 234.523C173.586 234.523 174.258 234.812 174.898 235.391C174.898 236.203 174.797 236.805 174.594 237.195C174.406 237.586 174.055 237.781 173.539 237.781C173.227 237.781 172.867 237.602 172.461 237.242C172.055 236.883 171.695 236.703 171.383 236.703C171.07 236.703 170.82 236.828 170.633 237.078C170.445 237.312 170.305 237.617 170.211 237.992C170.133 238.367 170.094 238.758 170.094 239.164V241.531C170.094 242.547 170.148 243.25 170.258 243.641C170.289 243.703 170.398 243.781 170.586 243.875C170.773 243.969 170.977 244.055 171.195 244.133C171.414 244.195 171.562 244.227 171.641 244.227C171.672 244.227 171.695 244.289 171.711 244.414C171.727 244.539 171.734 244.672 171.734 244.812C171.734 244.953 171.719 245.047 171.688 245.094C171.562 245.078 171.297 245.055 170.891 245.023C170.484 245.008 170.055 244.984 169.602 244.953C169.164 244.922 168.82 244.906 168.57 244.906C168.383 244.906 168.125 244.914 167.797 244.93C167.484 244.945 167.156 244.969 166.812 245C166.469 245.016 166.164 245.031 165.898 245.047C165.633 245.078 165.453 245.094 165.359 245.094ZM176.258 245.094C176.195 245.031 176.164 244.867 176.164 244.602C176.164 244.352 176.195 244.227 176.258 244.227C176.383 244.227 176.562 244.195 176.797 244.133C177.031 244.055 177.25 243.969 177.453 243.875C177.656 243.781 177.766 243.703 177.781 243.641C177.891 243.203 177.945 242.609 177.945 241.859V238.648C177.945 237.773 177.805 237.188 177.523 236.891C177.398 236.734 177.227 236.625 177.008 236.562C176.805 236.5 176.625 236.461 176.469 236.445C176.312 236.414 176.234 236.383 176.234 236.352C176.234 235.805 176.273 235.531 176.352 235.531C176.758 235.531 177.32 235.445 178.039 235.273C178.773 235.086 179.547 234.906 180.359 234.734L180.898 234.617C180.977 234.617 181.055 234.672 181.133 234.781C181.211 234.875 181.25 234.953 181.25 235.016C181.234 235.109 181.211 235.297 181.18 235.578C181.164 235.859 181.148 236.016 181.133 236.047C181.914 235.031 182.797 234.523 183.781 234.523C184.484 234.523 185.156 234.812 185.797 235.391C185.797 236.203 185.695 236.805 185.492 237.195C185.305 237.586 184.953 237.781 184.438 237.781C184.125 237.781 183.766 237.602 183.359 237.242C182.953 236.883 182.594 236.703 182.281 236.703C181.969 236.703 181.719 236.828 181.531 237.078C181.344 237.312 181.203 237.617 181.109 237.992C181.031 238.367 180.992 238.758 180.992 239.164V241.531C180.992 242.547 181.047 243.25 181.156 243.641C181.188 243.703 181.297 243.781 181.484 243.875C181.672 243.969 181.875 244.055 182.094 244.133C182.312 244.195 182.461 244.227 182.539 244.227C182.57 244.227 182.594 244.289 182.609 244.414C182.625 244.539 182.633 244.672 182.633 244.812C182.633 244.953 182.617 245.047 182.586 245.094C182.461 245.078 182.195 245.055 181.789 245.023C181.383 245.008 180.953 244.984 180.5 244.953C180.062 244.922 179.719 244.906 179.469 244.906C179.281 244.906 179.023 244.914 178.695 244.93C178.383 244.945 178.055 244.969 177.711 245C177.367 245.016 177.062 245.031 176.797 245.047C176.531 245.078 176.352 245.094 176.258 245.094ZM189.898 245.164C189.039 245.164 188.352 244.93 187.836 244.461C187.336 243.977 187.086 243.375 187.086 242.656C187.086 242.047 187.273 241.516 187.648 241.062C188.039 240.609 188.523 240.25 189.102 239.984C189.32 239.891 189.523 239.812 189.711 239.75C189.898 239.672 190.07 239.602 190.227 239.539C190.82 239.352 191.297 239.219 191.656 239.141C192.016 239.047 192.281 238.969 192.453 238.906C192.594 238.859 192.664 238.742 192.664 238.555V237.711C192.664 236.43 192.273 235.789 191.492 235.789C190.586 235.789 190.133 236.312 190.133 237.359C190.133 237.703 189.992 237.961 189.711 238.133C189.43 238.289 189.117 238.367 188.773 238.367C188.055 238.367 187.562 238.133 187.297 237.664C187.297 237.258 187.438 236.867 187.719 236.492C188.016 236.117 188.398 235.781 188.867 235.484C189.352 235.172 189.891 234.93 190.484 234.758C191.094 234.57 191.703 234.477 192.312 234.477C193.406 234.477 194.242 234.781 194.82 235.391C195.414 235.984 195.711 237.07 195.711 238.648V242.445C195.711 242.977 195.898 243.242 196.273 243.242C196.555 243.242 196.82 243.141 197.07 242.938C197.18 243 197.234 243.117 197.234 243.289C197.234 243.695 197.18 243.984 197.07 244.156C196.852 244.359 196.492 244.578 195.992 244.812C195.508 245.031 195.047 245.141 194.609 245.141C194.234 245.141 193.875 245.031 193.531 244.812C193.188 244.578 192.961 244.312 192.852 244.016C192.836 244.016 192.75 244.07 192.594 244.18C192.438 244.289 192.32 244.375 192.242 244.438C191.93 244.641 191.57 244.812 191.164 244.953C190.758 245.094 190.336 245.164 189.898 245.164ZM191.375 243.477C191.781 243.477 192.094 243.383 192.312 243.195C192.547 242.992 192.664 242.75 192.664 242.469V240.102L191.445 240.523C191.117 240.633 190.812 240.797 190.531 241.016C190.266 241.234 190.133 241.523 190.133 241.883C190.133 242.445 190.25 242.852 190.484 243.102C190.734 243.352 191.031 243.477 191.375 243.477Z" fill="#212529"/>
<path d="M44.6 282.465C44.39 283.025 44.09 283.51 43.7 283.92C43.31 284.32 42.85 284.625 42.32 284.835C41.8 285.045 41.23 285.15 40.61 285.15C39.67 285.15 38.855 284.945 38.165 284.535C37.485 284.115 36.955 283.525 36.575 282.765C36.205 282.005 36.02 281.1 36.02 280.05C36.02 279 36.205 278.095 36.575 277.335C36.955 276.575 37.485 275.99 38.165 275.58C38.855 275.16 39.66 274.95 40.58 274.95C41.22 274.95 41.79 275.04 42.29 275.22C42.79 275.39 43.215 275.65 43.565 276C43.925 276.34 44.21 276.76 44.42 277.26L43.235 277.815C43.015 277.245 42.695 276.815 42.275 276.525C41.865 276.225 41.33 276.075 40.67 276.075C40 276.075 39.41 276.235 38.9 276.555C38.39 276.865 37.99 277.315 37.7 277.905C37.42 278.495 37.28 279.21 37.28 280.05C37.28 280.88 37.415 281.595 37.685 282.195C37.955 282.785 38.34 283.24 38.84 283.56C39.34 283.87 39.93 284.025 40.61 284.025C41.27 284.025 41.845 283.86 42.335 283.53C42.825 283.19 43.18 282.685 43.4 282.015L44.6 282.465ZM53.8632 275.1V276.225H50.4132V285H49.2132V276.225H45.7632V275.1H53.8632ZM59.609 274.95C60.549 274.95 61.359 275.16 62.039 275.58C62.729 275.99 63.259 276.575 63.629 277.335C64.009 278.095 64.199 279 64.199 280.05C64.199 281.1 64.009 282.005 63.629 282.765C63.259 283.525 62.729 284.115 62.039 284.535C61.359 284.945 60.549 285.15 59.609 285.15C58.669 285.15 57.854 284.945 57.164 284.535C56.484 284.115 55.954 283.525 55.574 282.765C55.204 282.005 55.019 281.1 55.019 280.05C55.019 279 55.204 278.095 55.574 277.335C55.954 276.575 56.484 275.99 57.164 275.58C57.854 275.16 58.669 274.95 59.609 274.95ZM59.609 276.075C58.929 276.075 58.339 276.235 57.839 276.555C57.339 276.865 56.954 277.32 56.684 277.92C56.414 278.51 56.279 279.22 56.279 280.05C56.279 280.88 56.414 281.595 56.684 282.195C56.954 282.785 57.339 283.24 57.839 283.56C58.339 283.87 58.929 284.025 59.609 284.025C60.299 284.025 60.889 283.87 61.379 283.56C61.879 283.24 62.264 282.785 62.534 282.195C62.804 281.595 62.939 280.88 62.939 280.05C62.939 279.22 62.804 278.51 62.534 277.92C62.264 277.32 61.879 276.865 61.379 276.555C60.889 276.235 60.299 276.075 59.609 276.075Z" fill="#212529" fill-opacity="0.75"/>
<defs>
<filter id="filter0_d_6_321" x="0" y="0" width="278" height="325" filterUnits="userSpaceOnUse" color-interpolation-filters="sRGB">
<feFlood flood-opacity="0" result="BackgroundImageFix"/>
<feColorMatrix in="SourceAlpha" type="matrix" values="0 0 0 0 0 0 0 0 0 0 0 0 0 0 0 0 0 0 127 0" result="hardAlpha"/>
<feMorphology radius="1" operator="dilate" in="SourceAlpha" result="effect1_dropShadow_6_321"/>
<feOffset dx="3" dy="4"/>
<feGaussianBlur stdDeviation="6"/>
<feComposite in2="hardAlpha" operator="out"/>
<feColorMatrix type="matrix" values="0 0 0 0 0 0 0 0 0 0 0 0 0 0 0 0 0 0 0.25 0"/>
<feBlend mode="normal" in2="BackgroundImageFix" result="effect1_dropShadow_6_321"/>
<feBlend mode="normal" in="SourceGraphic" in2="effect1_dropShadow_6_321" result="shape"/>
</filter>
</defs>
</svg>
