<svg width="278" height="325" viewBox="0 0 278 325" fill="none" xmlns="http://www.w3.org/2000/svg">
<g filter="url(#filter0_d_6_408)">
<rect x="10" y="9" width="252" height="299" rx="5" fill="white"/>
</g>
<circle cx="136" cy="116.5" r="87" stroke="black"/>
<mask id="mask0_6_408" style="mask-type:alpha" maskUnits="userSpaceOnUse" x="48" y="29" width="176" height="175">
<circle cx="136" cy="116.5" r="87.5" fill="#D9D9D9"/>
</mask>
<g mask="url(#mask0_6_408)">
<path d="M110.676 130.562C112.825 134.541 115.908 137.95 118.108 141.901C121.532 148.044 122.667 155.24 122.604 162.273C122.587 164.196 122.503 166.209 123.339 167.942C125.132 171.658 130.044 172.328 134.167 172.507C140.735 172.792 149.221 171.748 150.846 165.378C151.511 162.769 150.686 160.042 150.515 157.356C149.991 149.082 155.658 141.737 161.717 136.08C167.777 130.422 174.753 125.272 178.297 117.777C179.215 115.835 179.863 113.496 178.864 111.595C176.702 107.478 169.309 109.15 167.024 105.099C166.339 103.884 166.313 102.426 166.154 101.04C164.729 88.6563 151.233 80.4474 138.774 80.8444C129.253 81.1484 111.779 86.1473 107.496 95.8083C103.554 104.699 106.326 122.503 110.676 130.562Z" fill="#FFE7FB"/>
<path d="M76.8514 225.225C76.7284 229.123 77.4004 233.653 80.7454 235.658C82.4264 236.666 84.4694 236.813 86.4264 236.928C121.956 239.011 157.614 238.903 193.13 236.608C194.105 236.544 195.143 236.456 195.915 235.859C197.517 234.616 197.033 232.117 196.371 230.202C192.944 220.299 188.867 210.621 184.173 201.252C181.414 195.739 177.934 189.888 172.105 187.882C163.995 185.09 155.704 190.909 147.329 192.762C130.665 196.448 116.531 178.583 101.391 183.398C86.1244 188.252 77.3054 210.828 76.8514 225.225Z" fill="#C3C62B"/>
<path d="M116.042 175.823C115.731 176.323 115.429 176.873 115.462 177.46C115.503 178.17 116.017 178.752 116.52 179.255C126.915 189.656 144.858 191.36 157.024 183.1C158.547 182.066 160.03 180.838 160.807 179.169C162.338 175.881 160.533 171.751 157.513 169.742C154.494 167.733 150.628 167.458 147.024 167.858C143.419 168.257 139.898 169.26 136.284 169.57C127.253 170.347 121.385 167.231 116.042 175.823Z" fill="#6987FF"/>
<path d="M120.271 124.622C117.839 124.646 115.409 124.67 112.978 124.694C112.279 124.7 111.487 124.749 111.039 125.286C110.488 125.946 110.814 127.021 111.489 127.554C112.163 128.087 113.059 128.223 113.912 128.34C115.007 128.491 116.103 128.642 117.199 128.793C118.743 129.006 120.495 129.162 121.685 128.156C122.876 127.151 122.429 124.601 120.875 124.719" fill="#F03FA3"/>
<path d="M154.452 125.841C152.021 125.865 149.59 125.889 147.159 125.912C146.461 125.919 145.668 125.969 145.22 126.505C144.669 127.165 144.996 128.239 145.669 128.773C146.344 129.307 147.241 129.443 148.092 129.56C149.188 129.71 150.284 129.861 151.379 130.012C152.924 130.225 154.676 130.382 155.867 129.375C157.057 128.369 156.61 125.819 155.055 125.938" fill="#F03FA3"/>
<path d="M113.396 105.963C114.209 105.281 115.161 104.874 116.129 104.576C117.104 104.289 118.12 104.152 119.137 104.149C121.159 104.147 123.272 104.677 124.861 106.058C123.8 106.16 122.864 106.11 121.918 106.142L119.141 106.149C117.289 106.131 115.463 106.177 113.396 105.963Z" fill="black"/>
<path d="M120.967 115.885C120.967 117.5 120.146 118.809 119.133 118.809C118.12 118.809 117.298 117.5 117.298 115.885C117.298 114.271 118.12 112.962 119.133 112.962C120.146 112.962 120.967 114.271 120.967 115.885Z" fill="black"/>
<path d="M153.42 105.822C151.356 106.062 149.531 106.037 147.678 106.076L144.903 106.104C143.956 106.082 143.019 106.145 141.959 106.055C143.53 104.655 145.637 104.099 147.658 104.077C148.676 104.068 149.692 104.193 150.67 104.468C151.643 104.754 152.6 105.15 153.42 105.822Z" fill="black"/>
<path d="M146.298 115.885C146.298 117.5 147.12 118.809 148.133 118.809C149.146 118.809 149.967 117.5 149.967 115.885C149.967 114.271 149.146 112.962 148.133 112.962C147.12 112.962 146.298 114.271 146.298 115.885Z" fill="black"/>
<path d="M130.047 114.229C130.163 114.481 129.733 121.184 128.569 124.448C128.569 124.448 128.569 129.117 133.943 128.137" stroke="black" stroke-miterlimit="10"/>
<path d="M126.766 135.104C126.766 135.104 134.764 135.643 141.122 134.549" stroke="black" stroke-miterlimit="10"/>
<path d="M75 233.009L80.03 209.879C82.68 197.689 90.13 187.089 100.7 180.458L120.25 168.198L120.83 162.019H120.84L122.15 148.099L122.18 147.799" stroke="black" stroke-miterlimit="10"/>
<path d="M192.89 233.009L187.86 209.879C185.21 197.689 177.76 187.089 167.19 180.458L147.64 168.198L146.25 153.589L145.76 148.328L145.74 148.158" stroke="black" stroke-miterlimit="10"/>
<path d="M101.23 96.6792C101.67 97.4292 100.67 126.958 118.31 144.679C122.33 148.708 127.32 152.139 133.52 154.458C133.52 154.458 139.18 153.599 145.76 148.328C147.06 147.299 148.39 146.089 149.72 144.679C157.28 136.698 164.82 122.349 165.67 96.6792" stroke="black" stroke-miterlimit="10"/>
<path d="M102.594 112.85C102.594 112.85 95.1882 105.009 92.0782 109.203C88.9662 113.399 97.3522 131.715 107.79 128.594" stroke="black" stroke-miterlimit="10"/>
<path d="M97.0996 116.394C97.0996 116.394 102.129 115.991 104.613 119.795" stroke="black" stroke-miterlimit="10"/>
<path d="M100.108 120.172C100.108 120.172 100.122 118.441 103.359 118.37" stroke="black" stroke-miterlimit="10"/>
<path d="M164.038 112.85C164.038 112.85 170.914 104.539 174.294 108.522C177.672 112.504 170.506 131.331 159.886 128.901" stroke="black" stroke-miterlimit="10"/>
<path d="M169.94 116.029C169.94 116.029 164.896 115.957 162.667 119.916" stroke="black" stroke-miterlimit="10"/>
<path d="M167.184 119.996C167.184 119.996 167.057 118.27 163.823 118.412" stroke="black" stroke-miterlimit="10"/>
<path d="M120.247 168.195C120.247 168.195 133.701 177.804 147.639 168.195" stroke="black" stroke-miterlimit="10"/>
<path d="M133.45 172.466L126.876 180.753C126.876 180.753 119.43 178.929 115.815 170.975" stroke="black" stroke-miterlimit="10"/>
<path d="M134.736 172.466L141.309 180.753C141.309 180.753 148.755 178.929 152.37 170.975" stroke="black" stroke-miterlimit="10"/>
<path d="M111.079 173.945C111.079 173.945 120.526 186.868 133.943 189.467C133.943 189.467 148.062 187.579 156.043 173.466" stroke="black" stroke-miterlimit="10"/>
<path d="M108.165 175.864C108.165 175.864 120.526 190.766 133.943 193.364C133.943 193.364 150.931 189.378 158.912 175.265" stroke="black" stroke-miterlimit="10"/>
<path d="M133.943 193.364V233.011" stroke="black" stroke-miterlimit="10"/>
<path d="M152.371 86.7405C152.371 86.7405 130.101 99.0945 115.816 100.04C101.532 100.986 103.259 113.996 103.259 113.996C103.259 113.996 92.0998 99.5815 93.4748 79.1745C94.8508 58.7675 136.097 43.1745 156.633 59.9135C156.633 59.9135 184.982 72.6725 164.329 111.276C164.329 111.276 156.693 104.626 152.371 86.7405Z" fill="black"/>
<path d="M144.963 58.7264C145.101 57.1034 145.423 55.4964 145.929 53.9494C147.496 49.1584 152.502 46.6354 157.306 46.1134C158.929 45.9374 160.587 45.9404 162.176 46.3084C166.559 47.3224 169.938 51.0504 171.586 55.2364C172.71 58.0914 173.15 61.2144 172.845 64.2684C172.673 65.9904 172.258 67.7124 171.397 69.2144C170.71 70.4134 169.753 71.4454 168.677 72.3144C164.835 75.4204 158.869 76.5084 154.1 75.5184C150.923 74.8604 148.576 72.8864 147.118 70.0274C145.351 66.5624 144.633 62.5974 144.963 58.7264Z" fill="black"/>
<path d="M146.251 153.589C140.301 155.658 128.411 159.559 120.841 162.019L122.151 148.099C125.401 150.649 129.161 152.828 133.521 154.458C133.521 154.458 139.181 153.599 145.761 148.328L146.251 153.589Z" fill="black"/>
</g>
<path d="M34.3438 250.109C33.8125 250.109 33.3672 249.969 33.0078 249.688C32.7734 249.312 32.6562 248.906 32.6562 248.469C32.6562 248.078 32.8047 247.742 33.1016 247.461C33.3984 247.18 33.7422 247.039 34.1328 247.039C34.5078 247.039 34.9141 247.281 35.3516 247.766C35.7734 248.234 36.0938 248.469 36.3125 248.469C37.0156 248.469 37.4688 247.922 37.6719 246.828C37.7812 246.281 37.8594 245.594 37.9062 244.766C37.9688 243.922 38 242.945 38 241.836V232.766C38 231.766 37.9375 231.156 37.8125 230.938C37.7656 230.844 37.6406 230.758 37.4375 230.68C37.25 230.586 37.0547 230.508 36.8516 230.445C36.6484 230.383 36.4844 230.352 36.3594 230.352C36.2969 230.352 36.2656 230.219 36.2656 229.953C36.2656 229.672 36.2812 229.516 36.3125 229.484L39.7109 229.625C39.8672 229.641 40.2188 229.633 40.7656 229.602C41.3125 229.57 42.0547 229.531 42.9922 229.484C43.0391 229.625 43.0625 229.766 43.0625 229.906C43.0625 230.203 43.0312 230.352 42.9688 230.352C42.875 230.352 42.7109 230.383 42.4766 230.445C42.2422 230.508 42.0156 230.586 41.7969 230.68C41.5938 230.758 41.4766 230.836 41.4453 230.914C41.3359 231.305 41.2812 231.969 41.2812 232.906V241.648C41.2812 243.414 41 244.93 40.4375 246.195C39.875 247.461 39.0781 248.43 38.0469 249.102C37.0156 249.773 35.7812 250.109 34.3438 250.109ZM47.1406 245.164C46.2812 245.164 45.5938 244.93 45.0781 244.461C44.5781 243.977 44.3281 243.375 44.3281 242.656C44.3281 242.047 44.5156 241.516 44.8906 241.062C45.2812 240.609 45.7656 240.25 46.3438 239.984C46.5625 239.891 46.7656 239.812 46.9531 239.75C47.1406 239.672 47.3125 239.602 47.4688 239.539C48.0625 239.352 48.5391 239.219 48.8984 239.141C49.2578 239.047 49.5234 238.969 49.6953 238.906C49.8359 238.859 49.9062 238.742 49.9062 238.555V237.711C49.9062 236.43 49.5156 235.789 48.7344 235.789C47.8281 235.789 47.375 236.312 47.375 237.359C47.375 237.703 47.2344 237.961 46.9531 238.133C46.6719 238.289 46.3594 238.367 46.0156 238.367C45.2969 238.367 44.8047 238.133 44.5391 237.664C44.5391 237.258 44.6797 236.867 44.9609 236.492C45.2578 236.117 45.6406 235.781 46.1094 235.484C46.5938 235.172 47.1328 234.93 47.7266 234.758C48.3359 234.57 48.9453 234.477 49.5547 234.477C50.6484 234.477 51.4844 234.781 52.0625 235.391C52.6562 235.984 52.9531 237.07 52.9531 238.648V242.445C52.9531 242.977 53.1406 243.242 53.5156 243.242C53.7969 243.242 54.0625 243.141 54.3125 242.938C54.4219 243 54.4766 243.117 54.4766 243.289C54.4766 243.695 54.4219 243.984 54.3125 244.156C54.0938 244.359 53.7344 244.578 53.2344 244.812C52.75 245.031 52.2891 245.141 51.8516 245.141C51.4766 245.141 51.1172 245.031 50.7734 244.812C50.4297 244.578 50.2031 244.312 50.0938 244.016C50.0781 244.016 49.9922 244.07 49.8359 244.18C49.6797 244.289 49.5625 244.375 49.4844 244.438C49.1719 244.641 48.8125 244.812 48.4062 244.953C48 245.094 47.5781 245.164 47.1406 245.164ZM48.6172 243.477C49.0234 243.477 49.3359 243.383 49.5547 243.195C49.7891 242.992 49.9062 242.75 49.9062 242.469V240.102L48.6875 240.523C48.3594 240.633 48.0547 240.797 47.7734 241.016C47.5078 241.234 47.375 241.523 47.375 241.883C47.375 242.445 47.4922 242.852 47.7266 243.102C47.9766 243.352 48.2734 243.477 48.6172 243.477ZM55.625 245.094C55.5625 245.031 55.5312 244.867 55.5312 244.602C55.5312 244.352 55.5625 244.227 55.625 244.227C55.75 244.227 55.9219 244.195 56.1406 244.133C56.375 244.055 56.5938 243.969 56.7969 243.875C57.0156 243.781 57.1328 243.703 57.1484 243.641C57.2578 243.203 57.3125 242.609 57.3125 241.859V238.648C57.3125 237.773 57.1719 237.188 56.8906 236.891C56.7656 236.734 56.5938 236.625 56.375 236.562C56.1719 236.5 55.9922 236.461 55.8359 236.445C55.6797 236.414 55.6016 236.383 55.6016 236.352C55.6016 235.805 55.6406 235.531 55.7188 235.531C56.125 235.531 56.7031 235.445 57.4531 235.273C58.2031 235.086 59.0547 234.891 60.0078 234.688L60.125 234.664C60.1406 234.648 60.1719 234.641 60.2188 234.641L60.2656 234.617C60.3438 234.617 60.4219 234.672 60.5 234.781C60.5938 234.875 60.6328 234.953 60.6172 235.016L60.5234 235.742C60.5234 235.82 60.5312 235.867 60.5469 235.883C60.5781 235.883 60.6328 235.844 60.7109 235.766C61.5703 234.953 62.6562 234.547 63.9688 234.547C64.875 234.547 65.6094 234.93 66.1719 235.695C66.75 236.461 67.0391 237.625 67.0391 239.188V241.508C67.0391 242.539 67.0938 243.25 67.2031 243.641C67.2344 243.703 67.3516 243.781 67.5547 243.875C67.7578 243.969 67.9688 244.055 68.1875 244.133C68.4219 244.195 68.5859 244.227 68.6797 244.227C68.7109 244.227 68.7344 244.289 68.75 244.414C68.7656 244.539 68.7734 244.672 68.7734 244.812C68.7734 244.953 68.7578 245.047 68.7266 245.094C68.6328 245.094 68.4531 245.078 68.1875 245.047C67.9219 245.031 67.6094 245.016 67.25 245C66.9062 244.969 66.5781 244.945 66.2656 244.93C65.9531 244.914 65.7031 244.906 65.5156 244.906C65.2656 244.906 64.9141 244.922 64.4609 244.953C64.0234 244.984 63.6016 245.008 63.1953 245.023C62.7891 245.055 62.5234 245.078 62.3984 245.094C62.3359 245.031 62.3047 244.867 62.3047 244.602C62.3047 244.352 62.3359 244.227 62.3984 244.227C62.5234 244.227 62.6875 244.195 62.8906 244.133C63.1094 244.055 63.3125 243.969 63.5 243.875C63.7031 243.781 63.8125 243.703 63.8281 243.641C63.9375 243.203 63.9922 242.609 63.9922 241.859V239.75C63.9922 238.594 63.8281 237.773 63.5 237.289C63.1875 236.789 62.6797 236.539 61.9766 236.539C61.4922 236.539 61.1016 236.633 60.8047 236.82C60.5078 236.992 60.3594 237.242 60.3594 237.57V241.508C60.3594 242.539 60.4141 243.25 60.5234 243.641C60.5547 243.703 60.6641 243.781 60.8516 243.875C61.0391 243.969 61.2422 244.055 61.4609 244.133C61.6797 244.195 61.8281 244.227 61.9062 244.227C61.9375 244.227 61.9609 244.289 61.9766 244.414C61.9922 244.539 62 244.672 62 244.812C62 244.953 61.9844 245.047 61.9531 245.094C61.8281 245.078 61.5625 245.055 61.1562 245.023C60.75 245.008 60.3203 244.984 59.8672 244.953C59.4297 244.922 59.0859 244.906 58.8359 244.906C58.6484 244.906 58.3906 244.914 58.0625 244.93C57.75 244.945 57.4219 244.969 57.0781 245C56.7344 245.016 56.4297 245.031 56.1641 245.047C55.8984 245.078 55.7188 245.094 55.625 245.094ZM74.8672 245.164C73.9141 245.164 73.0312 244.922 72.2188 244.438C71.4219 243.953 70.7812 243.305 70.2969 242.492C69.8281 241.68 69.5938 240.789 69.5938 239.82C69.5938 238.82 69.8047 237.922 70.2266 237.125C70.6641 236.328 71.2656 235.695 72.0312 235.227C72.7969 234.758 73.6797 234.523 74.6797 234.523C75.6641 234.523 76.5 234.758 77.1875 235.227C77.8906 235.68 78.4219 236.25 78.7812 236.938C79.1562 237.609 79.3438 238.289 79.3438 238.977C79.3438 239.336 79.2656 239.57 79.1094 239.68C78.9688 239.789 78.6797 239.844 78.2422 239.844H72.9453C72.8516 239.844 72.8047 239.898 72.8047 240.008C72.8047 240.57 72.9062 241.102 73.1094 241.602C73.3281 242.102 73.6406 242.508 74.0469 242.82C74.4688 243.133 74.9766 243.289 75.5703 243.289C76.1016 243.289 76.5938 243.211 77.0469 243.055C77.3594 242.961 77.6016 242.875 77.7734 242.797C77.9453 242.719 78.1016 242.633 78.2422 242.539C78.3984 242.43 78.5781 242.297 78.7812 242.141C78.9219 242.203 78.9922 242.352 78.9922 242.586C78.9922 242.789 78.9609 242.945 78.8984 243.055C78.8047 243.305 78.5547 243.594 78.1484 243.922C77.7578 244.25 77.2734 244.539 76.6953 244.789C76.1328 245.039 75.5234 245.164 74.8672 245.164ZM72.9688 238.555H75.9453C76.1641 238.555 76.2734 238.406 76.2734 238.109C76.2734 237.516 76.1094 236.984 75.7812 236.516C75.4688 236.047 75.0625 235.812 74.5625 235.812C74.1094 235.812 73.75 235.977 73.4844 236.305C73.2344 236.617 73.0547 236.969 72.9453 237.359C72.8516 237.75 72.8047 238.07 72.8047 238.32C72.8047 238.477 72.8594 238.555 72.9688 238.555ZM85.25 245.164C84.3906 245.164 83.6484 244.898 83.0234 244.367C82.4141 243.82 82.1094 242.945 82.1094 241.742V236.328H80.5859C80.4609 236.328 80.3984 236.086 80.3984 235.602C80.3984 235.492 80.4141 235.406 80.4453 235.344C80.8828 235.125 81.2734 234.914 81.6172 234.711C81.9766 234.492 82.2891 234.281 82.5547 234.078C83.2422 233.531 83.7422 233.117 84.0547 232.836C84.3672 232.555 84.5312 232.406 84.5469 232.391C84.6719 232.391 84.8047 232.422 84.9453 232.484C85.0859 232.531 85.1562 232.586 85.1562 232.648V234.945H87.6875C87.8125 234.945 87.875 235.023 87.875 235.18C87.875 235.648 87.7969 236.031 87.6406 236.328H85.1562V241.883C85.1562 243.07 85.5781 243.664 86.4219 243.664C86.8594 243.664 87.1641 243.609 87.3359 243.5C87.5234 243.375 87.6484 243.312 87.7109 243.312C87.7734 243.312 87.8359 243.391 87.8984 243.547C87.9766 243.703 88.0156 243.82 88.0156 243.898C88.0156 244.023 87.8594 244.188 87.5469 244.391C87.25 244.594 86.8828 244.773 86.4453 244.93C86.0234 245.086 85.625 245.164 85.25 245.164ZM94.2266 245.094C94.1641 245.031 94.1328 244.898 94.1328 244.695C94.1328 244.383 94.1641 244.227 94.2266 244.227C94.3516 244.227 94.5312 244.203 94.7656 244.156C95 244.109 95.2188 244.047 95.4219 243.969C95.625 243.875 95.7422 243.789 95.7734 243.711C95.8672 243.352 95.9141 242.664 95.9141 241.648V232.789C95.9141 231.914 95.8672 231.305 95.7734 230.961C95.7422 230.867 95.6172 230.773 95.3984 230.68C95.1953 230.57 94.9766 230.484 94.7422 230.422C94.5078 230.344 94.3281 230.305 94.2031 230.305C94.1406 230.305 94.1094 230.164 94.1094 229.883C94.1094 229.633 94.1328 229.484 94.1797 229.438C94.8047 229.469 95.3984 229.5 95.9609 229.531C96.5391 229.547 97.0938 229.555 97.625 229.555L101.164 229.508C101.742 229.508 102.328 229.586 102.922 229.742C103.516 229.883 104.094 230.109 104.656 230.422C105.203 230.734 105.648 231.172 105.992 231.734C106.336 232.297 106.508 232.945 106.508 233.68C106.508 234.211 106.391 234.688 106.156 235.109C105.938 235.531 105.68 235.883 105.383 236.164C105.086 236.43 104.812 236.609 104.562 236.703C104.438 236.75 104.398 236.797 104.445 236.844C104.82 236.906 105.203 237.102 105.594 237.43C106 237.758 106.344 238.195 106.625 238.742C106.906 239.273 107.047 239.898 107.047 240.617C107.047 241.508 106.797 242.289 106.297 242.961C105.797 243.633 105.102 244.148 104.211 244.508C103.32 244.852 102.281 245.016 101.094 245L97.6484 244.953C97.1797 244.953 96.6562 244.969 96.0781 245C95.5156 245.016 95.0625 245.031 94.7188 245.047L94.2266 245.094ZM100.414 236.305C101.023 236.305 101.469 236.234 101.75 236.094C102 235.969 102.18 235.852 102.289 235.742C102.414 235.633 102.547 235.406 102.688 235.062C102.844 234.703 102.922 234.25 102.922 233.703C102.922 231.766 102.203 230.797 100.766 230.797C100.047 230.797 99.5938 230.828 99.4062 230.891C99.2656 230.906 99.1953 231 99.1953 231.172V235.977C99.1953 236.195 99.6016 236.305 100.414 236.305ZM101.117 243.711C102.727 243.711 103.531 242.766 103.531 240.875C103.531 238.703 102.57 237.617 100.648 237.617C100.164 237.617 99.7656 237.656 99.4531 237.734C99.2812 237.812 99.1953 237.883 99.1953 237.945V243.219C99.1953 243.375 99.25 243.484 99.3594 243.547C99.5156 243.656 100.102 243.711 101.117 243.711ZM108.406 245.094C108.344 245.031 108.312 244.867 108.312 244.602C108.312 244.352 108.344 244.227 108.406 244.227C108.531 244.227 108.711 244.195 108.945 244.133C109.18 244.055 109.398 243.969 109.602 243.875C109.805 243.781 109.914 243.703 109.93 243.641C110.039 243.203 110.094 242.609 110.094 241.859V238.648C110.094 237.773 109.953 237.188 109.672 236.891C109.547 236.734 109.375 236.625 109.156 236.562C108.953 236.5 108.773 236.461 108.617 236.445C108.461 236.414 108.383 236.383 108.383 236.352C108.383 235.805 108.422 235.531 108.5 235.531C108.906 235.531 109.469 235.445 110.188 235.273C110.922 235.086 111.695 234.906 112.508 234.734L113.047 234.617C113.125 234.617 113.203 234.672 113.281 234.781C113.359 234.875 113.398 234.953 113.398 235.016C113.383 235.109 113.359 235.297 113.328 235.578C113.312 235.859 113.297 236.016 113.281 236.047C114.062 235.031 114.945 234.523 115.93 234.523C116.633 234.523 117.305 234.812 117.945 235.391C117.945 236.203 117.844 236.805 117.641 237.195C117.453 237.586 117.102 237.781 116.586 237.781C116.273 237.781 115.914 237.602 115.508 237.242C115.102 236.883 114.742 236.703 114.43 236.703C114.117 236.703 113.867 236.828 113.68 237.078C113.492 237.312 113.352 237.617 113.258 237.992C113.18 238.367 113.141 238.758 113.141 239.164V241.531C113.141 242.547 113.195 243.25 113.305 243.641C113.336 243.703 113.445 243.781 113.633 243.875C113.82 243.969 114.023 244.055 114.242 244.133C114.461 244.195 114.609 244.227 114.688 244.227C114.719 244.227 114.742 244.289 114.758 244.414C114.773 244.539 114.781 244.672 114.781 244.812C114.781 244.953 114.766 245.047 114.734 245.094C114.609 245.078 114.344 245.055 113.938 245.023C113.531 245.008 113.102 244.984 112.648 244.953C112.211 244.922 111.867 244.906 111.617 244.906C111.43 244.906 111.172 244.914 110.844 244.93C110.531 244.945 110.203 244.969 109.859 245C109.516 245.016 109.211 245.031 108.945 245.047C108.68 245.078 108.5 245.094 108.406 245.094ZM122.047 245.164C121.188 245.164 120.5 244.93 119.984 244.461C119.484 243.977 119.234 243.375 119.234 242.656C119.234 242.047 119.422 241.516 119.797 241.062C120.188 240.609 120.672 240.25 121.25 239.984C121.469 239.891 121.672 239.812 121.859 239.75C122.047 239.672 122.219 239.602 122.375 239.539C122.969 239.352 123.445 239.219 123.805 239.141C124.164 239.047 124.43 238.969 124.602 238.906C124.742 238.859 124.812 238.742 124.812 238.555V237.711C124.812 236.43 124.422 235.789 123.641 235.789C122.734 235.789 122.281 236.312 122.281 237.359C122.281 237.703 122.141 237.961 121.859 238.133C121.578 238.289 121.266 238.367 120.922 238.367C120.203 238.367 119.711 238.133 119.445 237.664C119.445 237.258 119.586 236.867 119.867 236.492C120.164 236.117 120.547 235.781 121.016 235.484C121.5 235.172 122.039 234.93 122.633 234.758C123.242 234.57 123.852 234.477 124.461 234.477C125.555 234.477 126.391 234.781 126.969 235.391C127.562 235.984 127.859 237.07 127.859 238.648V242.445C127.859 242.977 128.047 243.242 128.422 243.242C128.703 243.242 128.969 243.141 129.219 242.938C129.328 243 129.383 243.117 129.383 243.289C129.383 243.695 129.328 243.984 129.219 244.156C129 244.359 128.641 244.578 128.141 244.812C127.656 245.031 127.195 245.141 126.758 245.141C126.383 245.141 126.023 245.031 125.68 244.812C125.336 244.578 125.109 244.312 125 244.016C124.984 244.016 124.898 244.07 124.742 244.18C124.586 244.289 124.469 244.375 124.391 244.438C124.078 244.641 123.719 244.812 123.312 244.953C122.906 245.094 122.484 245.164 122.047 245.164ZM123.523 243.477C123.93 243.477 124.242 243.383 124.461 243.195C124.695 242.992 124.812 242.75 124.812 242.469V240.102L123.594 240.523C123.266 240.633 122.961 240.797 122.68 241.016C122.414 241.234 122.281 241.523 122.281 241.883C122.281 242.445 122.398 242.852 122.633 243.102C122.883 243.352 123.18 243.477 123.523 243.477ZM131.047 250.109C130.578 250.109 130.195 249.984 129.898 249.734C129.617 249.484 129.477 249.195 129.477 248.867C129.477 248.398 129.656 248.031 130.016 247.766C132.016 247.766 133.305 247.156 133.883 245.938L134.609 244.391L131 236.375C130.844 236.031 130.602 235.797 130.273 235.672C129.961 235.547 129.688 235.484 129.453 235.484C129.391 235.484 129.359 235.367 129.359 235.133C129.359 234.82 129.375 234.648 129.406 234.617C129.469 234.617 129.617 234.625 129.852 234.641C130.102 234.656 130.445 234.68 130.883 234.711C131.32 234.742 131.688 234.766 131.984 234.781C132.297 234.797 132.547 234.805 132.734 234.805C132.969 234.805 133.305 234.789 133.742 234.758C134.18 234.727 134.602 234.695 135.008 234.664C135.43 234.633 135.695 234.617 135.805 234.617C135.852 234.758 135.875 234.922 135.875 235.109C135.875 235.359 135.844 235.484 135.781 235.484C135.656 235.484 135.477 235.516 135.242 235.578C135.008 235.641 134.797 235.719 134.609 235.812C134.422 235.891 134.328 235.984 134.328 236.094C134.359 236.328 134.523 236.836 134.82 237.617C135.133 238.398 135.586 239.484 136.18 240.875C136.711 239.719 137.117 238.828 137.398 238.203C137.695 237.562 137.867 237.188 137.914 237.078C138.008 236.859 138.055 236.625 138.055 236.375C138.055 236.172 137.906 235.977 137.609 235.789C137.312 235.586 136.906 235.484 136.391 235.484C136.328 235.484 136.297 235.344 136.297 235.062C136.297 234.953 136.297 234.867 136.297 234.805C136.312 234.727 136.328 234.664 136.344 234.617C136.469 234.617 136.727 234.633 137.117 234.664C137.523 234.695 137.945 234.727 138.383 234.758C138.82 234.789 139.164 234.805 139.414 234.805C139.586 234.805 139.781 234.797 140 234.781C140.219 234.75 140.461 234.727 140.727 234.711L141.922 234.617C141.984 234.727 142.016 234.859 142.016 235.016C142.016 235.328 141.984 235.484 141.922 235.484C141.766 235.484 141.547 235.523 141.266 235.602C141 235.664 140.734 235.766 140.469 235.906C140.219 236.031 140.047 236.203 139.953 236.422L135.594 245.867C134.281 248.695 132.766 250.109 131.047 250.109Z" fill="#212529"/>
<path d="M39.815 275.1C41.365 275.1 42.58 275.53 43.46 276.39C44.35 277.24 44.795 278.46 44.795 280.05C44.795 281.64 44.35 282.865 43.46 283.725C42.58 284.575 41.365 285 39.815 285H36.62V275.1H39.815ZM39.935 283.875C41.065 283.875 41.945 283.54 42.575 282.87C43.215 282.19 43.535 281.25 43.535 280.05C43.535 278.85 43.215 277.915 42.575 277.245C41.945 276.565 41.065 276.225 39.935 276.225H37.82V283.875H39.935ZM47.4305 285V275.1H54.3755V276.225H48.6305V279.42H53.1005V280.545H48.6305V283.875H54.6005V285H47.4305ZM64.676 275.1L60.926 285H59.561L55.796 275.1H57.086L59.606 281.94L60.236 283.905L60.866 281.955L63.386 275.1H64.676ZM66.7225 285V275.1H73.6675V276.225H67.9225V279.42H72.3925V280.545H67.9225V283.875H73.8925V285H66.7225ZM77.488 283.875H83.158V285H76.288V275.1H77.488V283.875ZM88.8913 274.95C89.8313 274.95 90.6413 275.16 91.3213 275.58C92.0113 275.99 92.5413 276.575 92.9113 277.335C93.2913 278.095 93.4813 279 93.4813 280.05C93.4813 281.1 93.2913 282.005 92.9113 282.765C92.5413 283.525 92.0113 284.115 91.3213 284.535C90.6413 284.945 89.8313 285.15 88.8913 285.15C87.9513 285.15 87.1363 284.945 86.4463 284.535C85.7663 284.115 85.2363 283.525 84.8563 282.765C84.4863 282.005 84.3013 281.1 84.3013 280.05C84.3013 279 84.4863 278.095 84.8563 277.335C85.2363 276.575 85.7663 275.99 86.4463 275.58C87.1363 275.16 87.9513 274.95 88.8913 274.95ZM88.8913 276.075C88.2113 276.075 87.6213 276.235 87.1213 276.555C86.6213 276.865 86.2363 277.32 85.9663 277.92C85.6963 278.51 85.5613 279.22 85.5613 280.05C85.5613 280.88 85.6963 281.595 85.9663 282.195C86.2363 282.785 86.6213 283.24 87.1213 283.56C87.6213 283.87 88.2113 284.025 88.8913 284.025C89.5813 284.025 90.1713 283.87 90.6613 283.56C91.1613 283.24 91.5463 282.785 91.8163 282.195C92.0863 281.595 92.2213 280.88 92.2213 280.05C92.2213 279.22 92.0863 278.51 91.8163 277.92C91.5463 277.32 91.1613 276.865 90.6613 276.555C90.1713 276.235 89.5813 276.075 88.8913 276.075ZM99.617 275.1C100.287 275.1 100.867 275.225 101.357 275.475C101.857 275.715 102.247 276.06 102.527 276.51C102.807 276.96 102.947 277.495 102.947 278.115C102.947 278.735 102.807 279.27 102.527 279.72C102.247 280.17 101.857 280.52 101.357 280.77C100.867 281.01 100.287 281.13 99.617 281.13H97.322V285H96.122V275.1H99.617ZM99.437 280.005C100.217 280.005 100.787 279.845 101.147 279.525C101.507 279.195 101.687 278.725 101.687 278.115C101.687 277.495 101.507 277.025 101.147 276.705C100.787 276.385 100.217 276.225 99.437 276.225H97.322V280.005H99.437ZM105.277 285V275.1H112.222V276.225H106.477V279.42H110.947V280.545H106.477V283.875H112.447V285H105.277ZM118.593 275.1C119.603 275.1 120.413 275.36 121.023 275.88C121.633 276.4 121.938 277.105 121.938 277.995C121.938 278.885 121.628 279.58 121.008 280.08C120.398 280.57 119.588 280.815 118.578 280.815L118.473 280.89H116.043V285H114.843V275.1H118.593ZM118.578 279.765C119.288 279.765 119.813 279.62 120.153 279.33C120.503 279.03 120.678 278.585 120.678 277.995C120.678 277.405 120.503 276.965 120.153 276.675C119.813 276.375 119.288 276.225 118.578 276.225H116.043V279.765H118.578ZM119.268 280.005L122.538 285H121.113L118.263 280.665L119.268 280.005Z" fill="#212529" fill-opacity="0.75"/>
<defs>
<filter id="filter0_d_6_408" x="0" y="0" width="278" height="325" filterUnits="userSpaceOnUse" color-interpolation-filters="sRGB">
<feFlood flood-opacity="0" result="BackgroundImageFix"/>
<feColorMatrix in="SourceAlpha" type="matrix" values="0 0 0 0 0 0 0 0 0 0 0 0 0 0 0 0 0 0 127 0" result="hardAlpha"/>
<feMorphology radius="1" operator="dilate" in="SourceAlpha" result="effect1_dropShadow_6_408"/>
<feOffset dx="3" dy="4"/>
<feGaussianBlur stdDeviation="6"/>
<feComposite in2="hardAlpha" operator="out"/>
<feColorMatrix type="matrix" values="0 0 0 0 0 0 0 0 0 0 0 0 0 0 0 0 0 0 0.25 0"/>
<feBlend mode="normal" in2="BackgroundImageFix" result="effect1_dropShadow_6_408"/>
<feBlend mode="normal" in="SourceGraphic" in2="effect1_dropShadow_6_408" result="shape"/>
</filter>
</defs>
</svg>
